<?xml version="1.0" encoding="utf-8"?>
<!-- Generator: Adobe Illustrator 15.1.0, SVG Export Plug-In . SVG Version: 6.00 Build 0)  -->
<!DOCTYPE svg PUBLIC "-//W3C//DTD SVG 1.1//EN" "http://www.w3.org/Graphics/SVG/1.1/DTD/svg11.dtd">
<svg version="1.1" id="Layer_1" xmlns="http://www.w3.org/2000/svg" xmlns:xlink="http://www.w3.org/1999/xlink" x="0px" y="0px"
	 width="127.658px" height="183.769px" viewBox="0 0 127.658 183.769" enable-background="new 0 0 127.658 183.769"
	 xml:space="preserve">
<path fill-rule="evenodd" clip-rule="evenodd" d="M122.798,115.09c-1.596,1.173-1.586,0.82-4.32,1.081
	c-3.859,9.647,3.537,16.324-1.619,24.84c1.104,2.387,3.152,4.789,3.238,7.56c0.105,3.382-2.598,5.899-3.238,9.181
	c-1.602,8.184,2.363,16.873,0,25.379c-1.38,0.852-5.641,0.852-7.021,0c0.269-8.383-2.608-24.938,1.621-32.4
	c-0.791-3.707-3.268-5.732-4.32-9.179c6.97-3.299-1.705-16.892,1.08-24.841c-0.567-1.412-2.195-1.767-4.32-1.62
	c1.033-4.868-0.776-5.355-2.699-8.101c0.65-5.129,3.318-10.762,3.779-17.819c1.352-20.662-10.387-53.319-4.859-69.659
	c2.924-8.646,13.412-12.727,21.6-5.94c2.141,1.774,1.871,4.671,4.859,6.479c2.536,23.289-7.781,50.549-5.939,72.36
	c0.387,4.574,4.597,9.162,4.32,14.04C124.802,109.187,121.533,111.537,122.798,115.09z M118.478,44.89
	c1.759-0.642,3.309-4.951,1.08-4.859c0.539,0,1.08,0,1.621,0c-1.35-3.73,1.53-10.628-1.082-14.039
	c3.01,0.002,0.279-1.486-1.079-4.861c-1.038-2.58-1.163-5.61-4.86-5.939c0.324-1.942-0.193-3.046-1.62-3.24
	c0.519,3.219-1.849,3.55-4.319,3.78c-1.695,4.489-2.236,6.791-4.32,10.8c2.997,7.804,0.83,18.248,3.24,27
	c0.316,1.148,1.846,2.112,2.16,3.24c0.69,2.484-0.029,4.521,1.08,6.48c-3.773,9.97,3.883,22.726,1.08,32.939
	c5.512,1.441-0.35-7.351,4.319-4.32c-1.336-9.436,1.587-19.897,1.081-29.16c-0.5,0.941,0.018,2.898-1.62,2.7
	C116.082,58.208,120.87,48.868,118.478,44.89z M115.239,103.751c1.04-0.99-0.462-1.83-1.081-2.7
	c-1.475,1.368-6.308,2.461-7.561-0.54c-0.323,1.114-0.834,2.045-2.699,1.619c-1.254,8.15,15.062,7.517,19.439,3.24
	C121.527,98.64,116.75,102.945,115.239,103.751z M113.619,123.191c1.021-0.12,1.191,0.609,2.159,0.539
	c-0.305-2.464,0.958-3.363,0.54-5.938c-1.619,0-3.24,0-4.859,0c-0.068,3.229-0.884,6.932,0.54,9.72
	C113.597,124.902,115.203,125.482,113.619,123.191z M113.078,134.532c0.148-2.733,2.17-3.592,2.161-6.48
	C113.134,126.197,108.975,133.533,113.078,134.532z M114.158,137.771c-2.47-1.5-2.335,3.604-4.32,4.319
	c0.274,1.348,1.021,2.22,1.621,3.24c0.6-4.983,7.156-6.876,4.859-12.96C116.744,135.493,112.582,135.062,114.158,137.771z
	 M113.619,149.11c0.393-1.225,1.625-1.614,2.699-2.159c-0.311-0.949,0.652-3.173-0.54-3.24c0,0.541,0,1.081,0,1.62
	C112.757,143.74,112.923,148.333,113.619,149.11z M114.158,151.271c-0.123,2.937-3.043,3.077-2.159,7.021
	c2.835-2.391,7.597-5.719,5.94-10.802C116.838,149.421,115.004,152.057,114.158,151.271z M111.999,178.811
	c1.872,0.434,2.075-0.804,3.779-0.54c0-5.76,0-11.52,0-17.281c-1.167-0.451-1.841-1.397-3.779-1.078
	C110.774,167.292,112.173,172.195,111.999,178.811z"/>
<path fill-rule="evenodd" clip-rule="evenodd" d="M127.658,0.071c-0.378,1.781-1.15,3.169-3.779,2.7
	c0.373,1.066,1.439,1.439,2.699,1.619c0.482,3.184-0.921,4.479-3.779,4.32c0.311-1.129,1.338-1.541,1.08-3.239
	c-1.919,0.062-2.174,1.787-2.16,3.78c-3.368,0.008-5.896,0.527-7.561,0c-1.509-1.502,1.229-1.513,2.16-2.16
	c0.082-2.461,0.447-2.119,0-4.32c0.721-0.771,3.059-0.771,3.779,0c0.447,1.525-0.76,1.398-0.539,2.7
	c2.719-0.161,2.584-3.176,3.779-4.86C125.34,0.994,125.656-0.311,127.658,0.071z"/>
<path fill-rule="evenodd" clip-rule="evenodd" d="M68.499,108.431c-0.217,2.234-1.611,0.311-1.62,2.159
	c0.93,3.75,2.98,6.38,5.939,8.101c0.928,16.714-0.276,37.617-1.079,51.299c-4.077-4.156-11.964-1.793-15.661-0.539
	c1.95-19.989-2.42-32.873,0.541-48.601c0.479-2.544,2.957-4.446,3.779-7.02c2.549-7.981,0.114-16.966,1.08-27
	c-3.018-3.722-4.268-4.058-4.32-10.8c-0.103-13.195-0.993-33.453-0.539-50.76c4.428-3.486,15.518-2.717,18.899,1.08
	c-1.559,18.198-3.321,35.097-3.779,54c-5.73,4.557-3.903,13.168-4.86,19.44C69.759,96.603,63.857,108.223,68.499,108.431z
	 M62.018,24.731c-0.609,13.613,1.202,26.249,0.54,40.5c-0.229,4.894-2.979,13.088,3.24,12.419
	c1.375-15.859,2.131-27.018,3.239-38.879c1.077,0.545,1.233,2.007,2.161,2.7c0.018-7.373-2.371-10.021-2.161-16.74
	C67.046,23.779,64.125,24.263,62.018,24.731z M65.258,115.99c0-5.039,0-10.078,0-15.119c-0.54,0-1.079,0-1.62,0
	C63.912,106.312,61.297,112.707,65.258,115.99z"/>
<path fill-rule="evenodd" clip-rule="evenodd" d="M54.458,15.011c0.348,2.148-1.429,2.17-1.08,4.319
	c2.385-1.935,4.59-4.05,8.1-4.859c1.243,1.531-0.802,3.554,0.54,5.399c-2.964-0.083-2.603,3.157-5.399,3.24
	c-1.012-1.028-0.061-1.356,0-2.7c-4.258-0.247-5.283,2.43-8.641,0c-0.017-1.816,2.5-1.1,3.24-2.159
	c0.576-2.019-1.341-1.54-1.08-3.24C51.373,14.667,53.396,13.94,54.458,15.011z"/>
<path fill-rule="evenodd" clip-rule="evenodd" d="M28.898,7.151c0.023,3.499-1.268,2.98-0.539,6.479
	c-2.656,1.736-5.393,0.6-8.641,1.08c9.15,6.221,3.616,22.779,2.699,36.721c-0.482,7.35,1.479,13.035-2.699,16.199
	c-0.119,13.044-5.721,26.87-2.7,40.5c0.671,3.025,2.396,5.624,2.7,10.26c1.309,19.877-0.357,38.322,0.54,58.32
	c-4.636,0.929-11.642,0.377-18.36,0.541c0.4-16.792-4.828-42.954,0.541-62.642c0.928-3.407,3.906-5.87,4.319-10.799
	c0.995-11.877-0.466-28.345-2.7-39.421c-0.959-4.753-0.133-12.271-0.54-19.439c-0.677-11.895-3.265-27.223,6.48-30.78
	c2.302,0.22,5.562-0.522,7.02,0.54c2.666-1.959,3.19-4.625,4.319-7.02c3.324-0.633,0.422,3.351,1.621,3.78
	C25.302,9.467,22.052,6.048,28.898,7.151z M10.538,31.451c-0.187-1.49,1.552-3.793,0-4.859
	C10.725,28.081,8.988,30.382,10.538,31.451z M12.158,41.71c-0.146-1.156,0.419-5.761-0.539-4.32
	C11.765,38.547,11.2,43.152,12.158,41.71z M11.619,99.492c2.016-1.479,2.793-11.36,0.539-11.881
	C12.876,90.952,11.704,95.344,11.619,99.492z M7.298,118.931c-0.373,1.345,0.426,3.149,0,4.86c-0.312,1.254-1.812,2.792-2.16,4.318
	c-2.998,13.185,0.718,30.533,0,44.821c4.5,0,9,0,13.5,0c-0.566-10.414,1.229-23.188-1.08-31.86c1.453-9.847-1.09-28.453-5.939-37.26
	C11.44,109.225,8.258,115.468,7.298,118.931z"/>
</svg>
