<?xml version="1.0" encoding="utf-8"?>
<!-- Generator: Adobe Illustrator 15.1.0, SVG Export Plug-In . SVG Version: 6.00 Build 0)  -->
<!DOCTYPE svg PUBLIC "-//W3C//DTD SVG 1.1//EN" "http://www.w3.org/Graphics/SVG/1.1/DTD/svg11.dtd">
<svg version="1.1" id="Layer_1" xmlns="http://www.w3.org/2000/svg" xmlns:xlink="http://www.w3.org/1999/xlink" x="0px" y="0px"
	 width="149.198px" height="247.094px" viewBox="-43.299 0 149.198 247.094" enable-background="new -43.299 0 149.198 247.094"
	 xml:space="preserve">
<path d="M62.251,201.597c1.834-0.618,3.235,0.382,4.736,1.007c6.156-1.922,12.986-14.33,17.846-3.652
	c3.51,7.712-4.455,18.583-14.073,18.103c-0.896-1.653-2.556-1.366-3.72-2.841c-2.107-2.669-1.928-6.609-2.006-9.234
	C63.937,203.219,63.607,203.303,62.251,201.597z M81.606,196.243c-5.737-2.476-7.329,6.129-13.585,7.428
	c0.318,0.781,0.742,1.168,1.212,1.379c-2.14,1.908,0.992,4.086-0.91,6.346c1.024-0.158,2.513,1.913,3.899,3.151
	C79.803,213.309,87.878,204.146,81.606,196.243z"/>
<path d="M74.491,182.476c1.166-1.948,4.698-3.631,6.2-1.501C83.208,184.545,75.34,188.614,74.491,182.476z M79.671,182.811
	c-0.983,0.525-1.648,1.139-1.822,1.883C78.7,184.131,80.143,183.728,79.671,182.811z M76.146,183.182
	c0.831-0.479,1.662-0.959,2.494-1.439C77.906,180.083,75.535,182.18,76.146,183.182z"/>
<path d="M48.953,133.204c-0.682,1.029-2.133-1.482-0.9-1.559C48.352,132.165,48.652,132.684,48.953,133.204z"/>
<path d="M5.917,125.625c-0.25-1.03-0.904-0.554-1.21-1.379c0.521-0.3,1.04-0.6,1.559-0.899c-1.055-0.655-2.261-0.744-3.048-2.399
	c0.538-0.362,0.879,0.002,1.427-0.408c-0.928-1.126-2.075-1.431-3.046-2.397c0.211-0.471,0.598-0.895,1.379-1.212
	c-1.024-1.42-2.477-1.248-3.406-3.021c0.92-0.481,1.941-1.348,2.673-1.128c-0.03,0.388-0.054,0.775,0.36,0.624
	c0.003,0.614-0.397,1.123-1.197,1.523c1.067,0.936,2.449,0.69,3.227,2.709c-0.312,0.18-0.625,0.36-0.936,0.54
	c0.67,1.434,1.816,1.089,2.555,2.266c-0.172,0.569-0.051,1.216-1.199,1.524c0.785,1.333,2.26,0.089,2.867,2.086
	C7.073,124.987,6.798,124.569,5.917,125.625z"/>
<path d="M-1.127,107.661c-0.396,1.095-2.396-0.196-2.998-1.593c0.773-0.626,2.887-0.711,1.379-1.212
	c0.088-1.207,1.77-0.124,2.146,0.84C-0.821,106.188-2.861,107.515-1.127,107.661z"/>
<path d="M-20.545,68.99c-1.131-0.037-0.82-0.643-2.016-1.33c0.742-1.297,2.699-0.06,1.645-2.196
	c0.711-0.358,0.896,1.247,1.391,1.691C-20.344,67.637-21.647,67.992-20.545,68.99z"/>
<path d="M7.286,51.676c-2.667-1.273-3.802-6.223-5.796-7.88C4.533,45.062,5.175,49.803,7.286,51.676z"/>
<path d="M0.854,41.254C-3.176,38.827-4.87,29.663-9.74,28.666c-1.008-0.972,0.261-1.336-0.456-2.231
	c-0.602-0.71-1.65,0.255-2.279-0.347C-19.309,13.24-32.712,13.115-43.299,23.1c8.84-11.283,24.232-10.794,30.908,1.693
	c0.979,0.937,2.18,1.043,3.311,1.415c0.504,0.75-0.262,1.16-0.217,1.785C-5.006,29.026-2.542,36.877,0.854,41.254z"/>
<path d="M-39.532,26.744c-0.311,0.18-0.623,0.36-0.936,0.54c-2.252-0.841,0.045-2.841-1.668-3.609
	c1.217-0.607,2.15-0.159,2.818,1.282C-40.248,25.729-40.52,26.008-39.532,26.744z"/>
<path d="M85.06,229.583c1.134-0.988-0.904-1.189-0.457-2.23c1.527-0.312,1.562-0.176,2.986-1.308
	c0.684,1.062-0.53,1.615-0.659,2.458c0.261,0.337,0.72-0.064,1.115-0.229c1.476,1.98-2.437,4.949-3.43,1.98
	c-0.971,1.146-0.531,2.669-2.528,3.539c-0.662-0.73-0.203-2.48-1.441-2.494c0.643-0.971,0.658-2.107,0.61-3.262
	c0.478-0.312,1.276-0.537,1.067-1.033C82.24,228.624,85.165,228.128,85.06,229.583z"/>
<path d="M39.449,195.224c1.428-0.986-2.896-1.201-2.242-2.446c-0.907-0.928,0.709-1.119,1.066-1.031
	c-0.885-1.287-2.321-0.516-3.047-2.398c0.262-1.066,1.152-0.131,2.051-0.768c-1-1.189-2.416-0.82-3.228-2.709
	c1.849-0.162,2.382-1.539,3.706-0.062c0.924,0.862-0.688,1.046-1.198,1.524c1.006,0.178,1.858,0.932,2.818,1.281
	c0.552,0.85-0.245,1.34-1.019,1.836c0.658,0.816,1.665,0.339,2.195,1.642c0.553,0.847-0.295,1.528-0.887,1.345
	c0.669,1.039,2.422,1.287,2.243,2.445c-1.02,0.858-1.78,0.749-2.542,0.636c2.706,3.684,7.73,5.417,13.05,2.442
	c-0.66-4.634-1.608-7.466,0.128-11.298c2.992-6.606,14.781-8.767,16.809-15.524c0.603-3.352-0.442-7.146,1.161-10.23
	c0.991-0.504,1.337-1.754,2.494-1.439C52.083,124.029,29.917,91.235,9.314,55.907c9.182,14.124,19.119,29.04,27.742,43.011
	c3.719,6.026,7.129,13.791,11.688,17.363c7.241,15.649,17.533,28.59,25.823,43.288c1.227,0.666,2.646,0.613,3.935,1.055
	c5.494,10.576,15.912,23.018,8.98,31.396c2.238,3.702,4.725,4.872,4.369,8.286c2.654,3.054,9.895,3.695,12.99,9.543
	c1.243,2.347,1.803,6.514-0.681,7.459c-3.017,1.147-2.994-2.842-5.423-4.352c-6.312-1.438-8.758,5.822-13.803,9.216
	c-2.588,0.783-5.244,0.802-7.133,2.04c-3.252,2.134-2.432,7.562-6.75,8.47c-3.268-5.511-4.76-15.479-9.948-17.95
	c0.711-3.736,2.334-8.766-1.659-11.514c-1.637,0.203-3.165,0.01-4.559-0.693c-0.59-0.949-0.479-1.709-0.636-2.543
	c-7.386,2.817-13.822,2.074-17.261-5.415C37.875,194.544,38.783,194.434,39.449,195.224z M79.625,222.329
	c0.857-0.318,1.867,0.025,2.723-0.324c6.114-2.504,5.699-5.846,9.473-8.795c2.719-2.126,6.381-2.092,9.018-0.219
	c0.974,1.285,1.57,3.975,3.096,3.201c1.078-5.943-5.902-11.805-11.529-12.049c-3.035-1.887-3.25-4.289-5.568-6.763
	c-0.04-0.714,1.037-1.128,0.035-2.099c-0.867-0.363-1.585-1.297-2.375-1.955c1.785-3.883,4.652-7.772,1.904-13.984
	c-1.926-4.35-4.867-8.541-7.2-12.471c-2.282-3.841-6.949-7.459-7.509-1.485c6.854,15.442-20.961,17.587-16.961,31.824
	c2.631,0.545-0.08,3.091,2.028,4.232c5.334-1.536,9.205,8.89,5.725,12.075c4.298,4.521,7.099,12.408,9.146,18
	C74.162,228.728,74.23,224.335,79.625,222.329z"/>
<path d="M66.41,192.961c-2.521,4.576-8.574-0.559-5.865-3.68C63.333,186.065,68.016,190.391,66.41,192.961z M65.51,191.403
	c-0.835,0.742-2.917,1.151-2.939,2.111C63.552,193.645,65.671,192.392,65.51,191.403z M64.298,190.022
	c-0.674-1.086-1.755-0.656-2.902,0.014c0.203,0.5-0.748,2.581,0.588,1.74C61.096,190.718,63.519,191.091,64.298,190.022z"/>
<path d="M73.792,176.229c-1.175-1.458-1.033-2.562-1.356-3.79C77.37,166.29,80.686,178.108,73.792,176.229z M75.962,172.065
	c-0.773-0.13-3.21,0.893-2.135,2.064C74.542,173.442,75.701,172.874,75.962,172.065z"/>
<path d="M32.21,174.046c-0.256,0.927-0.763,0.487-1.559,0.899c0.613,0.447,3.875,1.881,1.801,3.119
	c0.613,0.662,1.389,0.715,2.146,0.839c-0.015,0.786,0.498,1.714-0.839,2.146c1.105,0.142,1.963,1.203,2.736,2.578
	c-0.729,0.421-1.455,0.841-2.183,1.261c-0.325-1.083-0.976-0.952-1.393-1.69c0.305-1.23,1.044,0.273,2.052-0.768
	c-1.289-0.436-2.727-0.32-3.672-2.039c0.262-1.066,1.151-0.131,2.051-0.768c-1.119-1.064-2.681-0.485-3.538-2.529
	c0.294-1.188,0.849,0.131,1.738-0.589c-1.13-1.03-2.545-0.993-3.538-2.529c1.012-0.829,1.717-0.509,2.543-0.636
	c-1.169-0.888-2.476-1.26-3.803-1.547c0.018-0.434,0.529-0.735,0.082-1.295c0.721-0.718,0.985,0.257,1.607-0.096
	c-0.021-1.281-2.717-0.979-3.406-3.021c0.256-0.928,0.763-0.486,1.559-0.9c-1.066-1.169-3.096-0.949-3.227-2.709
	c0.665-0.518,1.227-0.642,1.738-0.59c-0.039-0.561-2.029-2.217-3.18-1.905c-0.209-0.231-0.047-0.364,0.133-0.491
	c-0.12-0.209-0.24-0.416-0.359-0.623c0.822-0.777,1.227,0.008,2.051-0.77c-1.297-0.74-2.595-1.468-3.852-2.35
	c0.271-1.111,0.743-1.104,1.871-1.08c-1.085-1.201-2.57-0.896-3.408-3.021c0.733-0.767,1.062-0.026,1.74-0.589
	c-1.043-1.357-2.519-1.094-3.541-2.528c0.231-0.948,1.086-0.755,1.871-1.08c-1.107-1.767-2.805-1.335-3.897-3.153
	c0.665-0.517,1.225-0.641,1.737-0.588c-0.019-0.958-2.445-1.329-3.226-2.711c0.745-0.484,1.474-0.912,2.05-0.768
	c-1.261-1.523-2.889-1.676-3.946-3.957c0.537-0.361,0.878,0.003,1.427-0.407c-0.834-1.804-2.553-0.312-3.227-2.71
	c0.217-0.897,0.988-0.39,1.739-0.588c-0.101-0.979-2.688-1.086-3.539-2.529c0.745-0.486,1.474-0.916,2.051-0.768
	c-1.082-0.886-2.161-1.771-3.359-2.22c-0.427-0.812,0.736-1.405,1.379-1.211c-0.311-0.479-0.536-1.276-1.03-1.065
	c0.366-0.984,2.516-0.253,2.997,1.594c-0.52,0.299-1.038,0.6-1.558,0.898c1.1,0.815,2.627,0.036,3.357,2.219
	c-0.779,0.318-1.166,0.742-1.377,1.212c1.078,0.563,2.326,0.501,3.047,2.397c-0.826,0.308-0.351,0.961-1.38,1.213
	c0.979,0.611,2.093,0.714,2.866,2.086c-0.368,1.033-0.479,1.098-1.559,0.9c1.04,2.018,2.927,0.879,3.766,3.646
	c-0.732,0.766-1.061,0.026-1.738,0.587c1.033,0.736,2.326,0.501,3.047,2.398c-0.18,0.637-0.918,1.062-1.559,0.899
	c1.004,1.495,2.652,0.592,3.406,3.022c-0.137,0.401-0.51,0.74-1.066,1.031c0.672,1.754,2.109,0.654,2.866,2.086
	c-0.172,0.569-0.05,1.217-1.198,1.523c0.875,0.992,2.062,0.824,2.734,2.578c-0.211,0.47-0.598,0.893-1.378,1.211
	c1.157,0.268,2.277,0.68,3.046,2.398c-0.137,0.402-0.51,0.741-1.066,1.031c0.971,0.966,2.166,1.1,3.047,2.398
	c-0.519,0.477-0.05,1.216-1.199,1.523c1.267,0.821,2.588,1.046,2.915,2.889c-0.417-0.08-0.897,0.072-1.427,0.409
	c1.067,0.935,2.451,0.69,3.227,2.71c-0.78,0.317-1.168,0.74-1.379,1.211C30.076,172.836,31.544,171.944,32.21,174.046z"/>
<path d="M0.901,111.894c-0.461,0.694-2.665-0.514-3.49-1.725c1.868-0.62,1.462-0.801,2.626-1.933c1.33,0.55,0.842,2.373-0.791,2.951
	C-0.203,111.424,0.302,111.831,0.901,111.894z"/>
<path d="M-9.253,87.828c-0.581,0.284-0.438,0.761-1.067,1.032c0.613,1.644,2.02,0.336,2.556,2.266
	c-0.212,0.469-0.599,0.893-1.378,1.21c1.154,1.088,3.232,1.208,3.404,3.021c-0.415,0.24-0.831,0.48-1.246,0.719
	c0.871,0.356,1.442,1.833,2.508,1.464c0.186,1.091-0.35,1.58-1.51,1.704c1.212,0.717,2.451,1.336,3.537,2.528
	c-0.256,1.393-2.855,0.52-1.148,2.327c-1.012,0.49-1.424-1.247-2.064-2.134c0.824-0.787,1.092,0.509,1.919-0.276
	c-1.09-1.833-2.885-1.036-3.899-3.153c0.732-0.766,1.062-0.027,1.738-0.589c-1.035-0.766-3.172-1.427-3.227-2.708
	c0.732-0.768,1.062-0.027,1.74-0.59c-0.005-1.335-2.863-0.438-3.541-2.528c0.26-1.057,0.98-0.357,1.871-1.08
	c-1.178-0.851-2.535-1.031-3.406-3.021c0.793-0.403,1.529-0.819,1.689-1.393c-1.357-0.835-2.994-0.622-4.029-2.66
	c0.623-0.36,1.246-0.719,1.87-1.08c-1.336-1.244-3.081-0.962-4.079-3.464c0.666-0.517,1.227-0.642,1.738-0.59
	c-1.34-1.655-3.447-1.956-3.945-3.955c1.295-0.842,1.87,0.302,2.674-1.129c0.229,0.459,0.458,0.913,0.852,0.756
	c0.449,1.161-1.227,1.345-2.004,1.572c1.197,1.457,3.715,0.917,3.899,3.152c-0.8,0.4-1.546,0.817-1.199,1.524
	c1.087,1.188,2.612,0.742,3.54,2.53c-0.738,0.416-0.609,1.067-1.689,1.391C-11.862,85.761-10.269,85.716-9.253,87.828z"/>
<path d="M-17.499,71.387c-1.529,0.381-1.076,1.294-1.822,1.885c-0.518-0.674-1.354-0.936-1.08-1.871
	c0.575-0.508,0.949-0.263,1.426-0.408C-21.286,68.418-18.262,69-17.499,71.387z"/>
<path d="M-23.631,57.885c-0.146,0.664-1.449,1.018-1.019,1.836c1.105,1.118,2.489,1.202,3.539,2.529
	c-0.114,1.12-2.387,1.819-0.479,2.771c-1.048,0.303-1.875-0.213-2.507-1.462c0.472-0.883,0.2-0.994,1.379-1.213
	c-1.022-1.755-2.771-0.804-3.587-3.333c0.227-0.554,0.973-0.968,1.199-1.522c-0.6-1.367-1.793-0.527-2.507-1.464
	c-0.705-0.892,0.091-1.38,1.019-1.835c-1.004-1.168-2.492-0.534-3.227-2.711c1.03-0.25,0.555-0.904,1.38-1.21
	c-0.896-1.245-2.237-0.826-3.179-1.905c0.549-0.556,0.443-1.288,1.51-1.705c-0.764-1.079-2.002-0.397-2.82-1.283
	c-0.886-1.117,0.824-1.535,0.66-2.458c-0.854-0.743-1.989-0.446-2.687-1.775c0.161-0.572,0.897-0.987,1.69-1.391
	c-0.983-1.9-2.773-0.799-3.719-2.842c0.824-0.307,0.35-0.961,1.379-1.211c-0.725-1.882-2.161-1.112-3.047-2.399
	c0.928-0.541,0.592-1.422,1.331-2.014c-0.978-0.942-2.3-0.601-3.048-2.399c1.916-0.365,0.773-1.55,1.643-2.196
	c0.203,0.555,0.605,0.368,0.852,0.756c0.449,0.912,0.226,1.643-0.839,2.148c1.103,0.149,1.919,1.365,2.866,2.085
	c-0.517,0.477-0.049,1.217-1.199,1.524c0.828,1.504,2.189,1.012,3.048,2.397c-0.55,0.556-0.442,1.287-1.511,1.704
	c1.078,1.219,2.604,0.778,3.539,2.529c-0.824,0.308-0.349,0.96-1.379,1.212c1.217,1.438,4.711,1.631,2.16,3.741
	c0.759,1.1,2.02,0.331,2.556,2.266c-0.825,0.306-0.349,0.96-1.38,1.211c0.746,1.149,1.994,0.427,2.687,1.775
	c0.644,0.963-0.674,1.399-0.84,2.147c0.909,1.199,2.347,0.427,3.048,2.397C-27.649,56.145-25.102,56.161-23.631,57.885z"/>
</svg>
