<?xml version="1.0" encoding="utf-8"?>
<!-- Generator: Adobe Illustrator 15.1.0, SVG Export Plug-In . SVG Version: 6.00 Build 0)  -->
<!DOCTYPE svg PUBLIC "-//W3C//DTD SVG 1.1//EN" "http://www.w3.org/Graphics/SVG/1.1/DTD/svg11.dtd">
<svg version="1.1" id="Layer_1" xmlns="http://www.w3.org/2000/svg" xmlns:xlink="http://www.w3.org/1999/xlink" x="0px" y="0px"
	 width="211.867px" height="243.58px" viewBox="0 0 211.867 243.58" enable-background="new 0 0 211.867 243.58"
	 xml:space="preserve">
<g>
	<path fill-rule="evenodd" clip-rule="evenodd" d="M122.011-2.88c0.292,0.987-2.164,0.686-2.304,0.288
		C119.415-3.579,121.871-3.278,122.011-2.88z"/>
	<path fill-rule="evenodd" clip-rule="evenodd" d="M136.123-3.168c1.014,0.042,1.242,0.87,1.728,1.44c-0.576,0-1.152,0-1.728,0
		C136.123-2.208,136.123-2.688,136.123-3.168z"/>
	<path fill-rule="evenodd" clip-rule="evenodd" d="M113.083-2.304c0.48,0,0.96,0,1.44,0c0.295,0.968-0.896,0.448-1.44,0.576
		C113.083-1.92,113.083-2.112,113.083-2.304z"/>
	<path fill-rule="evenodd" clip-rule="evenodd" d="M103.867-0.864c1.014,0.042,1.243,0.87,1.728,1.44c-1.056,0-2.112,0-3.168,0
		C102.103-0.708,104.522,0.751,103.867-0.864z"/>
	<path fill-rule="evenodd" clip-rule="evenodd" d="M119.707,0.864c0.292,0.987-2.164,0.686-2.304,0.288
		C117.11,0.165,119.566,0.466,119.707,0.864z"/>
	<path fill-rule="evenodd" clip-rule="evenodd" d="M130.075,0.864c0.324,1.284-2.095-0.175-1.44,1.44
		c-0.519-0.633-1.428-0.875-2.304-1.152C126.426,0.084,129.522,0.519,130.075,0.864z"/>
	<path fill-rule="evenodd" clip-rule="evenodd" d="M121.147,2.304c1.303-0.247,1.607,0.505,2.304,0.864
		c0.296,0.968-0.896,0.448-1.44,0.576C122.55,2.437,120.867,3.352,121.147,2.304z"/>
	<path fill-rule="evenodd" clip-rule="evenodd" d="M94.075,2.88c0.576,0,1.152,0,1.728,0c0,0.48,0,0.96,0,1.44
		C94.935,4.133,94.061,3.951,94.075,2.88z"/>
	<path fill-rule="evenodd" clip-rule="evenodd" d="M139.291,2.88c0.418,0.157,1.488-0.337,1.439,0.288
		C141.055,4.156,138.636,4.021,139.291,2.88z"/>
	<path fill-rule="evenodd" clip-rule="evenodd" d="M104.731,6.624c0.418,0.158,1.488-0.336,1.44,0.288
		C106.495,7.9,104.076,7.765,104.731,6.624z"/>
	<path fill-rule="evenodd" clip-rule="evenodd" d="M164.059,12.96c0.406,0.919-1.723,0.728-1.728,0.288
		C161.925,12.329,164.055,12.521,164.059,12.96z"/>
	<path fill-rule="evenodd" clip-rule="evenodd" d="M159.451,14.112c0.418,0.157,1.488-0.337,1.439,0.288
		C161.215,15.388,158.796,15.253,159.451,14.112z"/>
	<path fill-rule="evenodd" clip-rule="evenodd" d="M143.035,15.84c0.295,0.967-0.896,0.448-1.44,0.576
		c0.405-1.269-0.947-0.78-1.728-0.864C140.281,14.165,142.676,15.301,143.035,15.84z"/>
	<path fill-rule="evenodd" clip-rule="evenodd" d="M159.451,16.416c0.288,0,0.576,0,0.863,0c-0.157,0.418,0.337,1.489-0.287,1.44
		C159.06,18.152,159.578,16.96,159.451,16.416z"/>
	<path fill-rule="evenodd" clip-rule="evenodd" d="M141.595,17.28c0.48,0,0.96,0,1.44,0c0,0.48,0,0.96,0,1.44c-0.48,0-0.96,0-1.44,0
		C141.595,18.24,141.595,17.76,141.595,17.28z"/>
	<path fill-rule="evenodd" clip-rule="evenodd" d="M93.499,21.024c-0.215,0.888,0.993,0.351,0.576,1.44
		c2.011,0.187,2.152-1.496,4.608-0.864c-0.172,0.749,0.115,1.037,0.864,0.864c0.28,1.048-1.403,0.133-0.864,1.44
		c-1.894-1.562-6.334-0.579-8.928-1.44C89.605,20.586,91.817,21.07,93.499,21.024z"/>
	<path fill-rule="evenodd" clip-rule="evenodd" d="M76.219,30.528c0.288,0,0.576,0,0.864,0c0,0.576,0,1.152,0,1.728
		c-0.506-0.166-1.692,0.348-1.728-0.288C75.075,30.92,76.758,31.835,76.219,30.528z"/>
	<path fill-rule="evenodd" clip-rule="evenodd" d="M71.611,37.44c0.288,0,0.576,0,0.864,0c-0.158,0.418,0.336,1.489-0.288,1.44
		C71.219,39.176,71.739,37.984,71.611,37.44z"/>
	<path fill-rule="evenodd" clip-rule="evenodd" d="M125.755,78.624c0.885-0.44,0.885,1.881,0,1.44
		C125.755,79.584,125.755,79.104,125.755,78.624z"/>
	<path fill-rule="evenodd" clip-rule="evenodd" d="M141.595,79.488c1.968-0.24,3.146,0.311,4.32,0.864
		c0.041,1.193-2.004,0.3-2.88,0.576C143.69,79.313,141.271,80.772,141.595,79.488z"/>
	<path fill-rule="evenodd" clip-rule="evenodd" d="M130.939,80.928c1.301,0.042,1.149,1.539,2.304,1.728
		c-0.894,1.866-1.472-1.086-3.168-0.288C129.795,81.32,131.478,82.235,130.939,80.928z"/>
	<path fill-rule="evenodd" clip-rule="evenodd" d="M143.035,81.792c1.248,0,2.496,0,3.744,0c-1.04,0.689-2.345,1.111-3.744,1.44
		C143.035,82.752,143.035,82.272,143.035,81.792z"/>
	<path fill-rule="evenodd" clip-rule="evenodd" d="M125.755,86.976c2.221-0.013,3.101,1.315,2.88,3.744
		c-0.955-0.292-0.96-1.536-2.304-1.44C126.618,88.033,126.009,87.682,125.755,86.976z"/>
	<path fill-rule="evenodd" clip-rule="evenodd" d="M135.547,90.72c0.48,0,0.96,0,1.44,0c0.296,0.968-0.896,0.448-1.44,0.576
		C135.547,91.104,135.547,90.912,135.547,90.72z"/>
	<path fill-rule="evenodd" clip-rule="evenodd" d="M129.499,91.296c0.48,0,0.96,0,1.44,0c-0.455,1.127,0.748,0.597,0.864,1.152
		c0.07,1.044-2.788,0.649-3.168,0.288C128.355,91.688,130.038,92.603,129.499,91.296z"/>
	<path fill-rule="evenodd" clip-rule="evenodd" d="M131.803,93.6c1.048-0.28,0.133,1.403,1.44,0.864
		c-0.337,0.623-0.817,1.103-1.44,1.44C131.803,95.136,131.803,94.368,131.803,93.6z"/>
	<path fill-rule="evenodd" clip-rule="evenodd" d="M179.611,97.344c1.833,0.183,0.419,3.613,0.863,5.184
		c-1.645,0.083-0.36,3.096-2.88,2.304c-0.149-1.589,1.009-1.872,0.576-3.744C179.556,100.745,179.597,99.058,179.611,97.344z"/>
	<path fill-rule="evenodd" clip-rule="evenodd" d="M139.867,104.256c0.576,0,1.151,0,1.728,0c0.272,1.041-1.134,0.401-1.728,0.576
		C139.867,104.64,139.867,104.448,139.867,104.256z"/>
	<path fill-rule="evenodd" clip-rule="evenodd" d="M174.427,104.832c2.174,0.515,1.168,4.208,3.168,4.896
		c-0.479,1.418-2.03,1.196-3.168,0.576C174.427,108.48,174.427,106.656,174.427,104.832z"/>
	<path fill-rule="evenodd" clip-rule="evenodd" d="M154.267,109.44c0.623,0.337,1.103,0.818,1.44,1.44c-0.48,0-0.96,0-1.44,0
		C154.267,110.4,154.267,109.92,154.267,109.44z"/>
	<path fill-rule="evenodd" clip-rule="evenodd" d="M103.867,110.304c0.576,0,1.152,0,1.728,0c-0.157,0.418,0.337,1.488-0.288,1.44
		C104.685,111.407,104.204,110.927,103.867,110.304z"/>
	<path fill-rule="evenodd" clip-rule="evenodd" d="M145.915,115.488c0.176,1.136-1.581,0.339-2.304,0.576
		C143.435,114.928,145.192,115.726,145.915,115.488z"/>
	<path fill-rule="evenodd" clip-rule="evenodd" d="M96.379,117.792c0.576,0,1.152,0,1.728,0c0,0.48,0,0.96,0,1.44
		c-0.576,0-1.152,0-1.728,0C96.379,118.752,96.379,118.272,96.379,117.792z"/>
	<path fill-rule="evenodd" clip-rule="evenodd" d="M110.779,117.792c0.909-0.37,0.909,2.387,0,2.016
		C110.779,119.136,110.779,118.464,110.779,117.792z"/>
	<path fill-rule="evenodd" clip-rule="evenodd" d="M85.147,118.368c0.288,0,0.576,0,0.864,0c-0.157,0.418,0.337,1.488-0.288,1.44
		C84.755,120.104,85.274,118.913,85.147,118.368z"/>
	<path fill-rule="evenodd" clip-rule="evenodd" d="M100.987,119.232c0.288,0,0.576,0,0.864,0c-0.176,0.689,0.361,2.09-0.288,2.304
		C100.427,121.712,101.224,119.955,100.987,119.232z"/>
	<path fill-rule="evenodd" clip-rule="evenodd" d="M143.611,120.672c0.768,0,1.535,0,2.304,0c-0.46,1.4-0.46,0.904,0,2.304
		c-0.48,0-0.96,0-1.44,0c0.173-0.748-0.115-1.036-0.863-0.864C143.611,121.632,143.611,121.152,143.611,120.672z"/>
	<path fill-rule="evenodd" clip-rule="evenodd" d="M83.707,122.976c0.288,0,0.576,0,0.864,0c-0.157,0.418,0.336,1.489-0.288,1.44
		C83.315,124.712,83.834,123.521,83.707,122.976z"/>
	<path fill-rule="evenodd" clip-rule="evenodd" d="M85.147,137.088c-0.539,1.307,1.144,0.392,0.864,1.44
		c-2.709,0.5-3.043-1.373-5.184-1.44c-0.348-1.212,0.465-1.263,0.576-2.016c-0.682-0.663-2.585-0.104-3.744-0.288
		c-0.28-1.048,1.403-0.133,0.864-1.44c1.248,0,2.496,0,3.744,0c0.444-1.212-1.491-0.046-1.44-0.864
		c0.11-0.753,0.923-0.804,0.576-2.016c0.906-0.33,0.7,0.452,1.152,0.576c0.625,0.049,0.131-1.021,0.288-1.44
		c1.193-0.727,3.232-0.608,5.184-0.576c0.636-0.036,0.123-1.222,0.288-1.728c1.248,0,2.496,0,3.744,0
		c1.227,1.67-0.651,2.938,0.576,4.608c-2.251-0.236-2.011,2.021-3.744,2.304c0,0.384,0,0.768,0,1.152
		c-0.048,0.625,1.022,0.13,1.44,0.288c0.142,1.102-1,0.92-0.576,2.304C87.731,138.152,86.146,137.913,85.147,137.088z
		 M88.315,131.04c1.29,0.138,2.017-0.287,2.016-1.44c-0.48,0-0.96,0-1.44,0C89.308,130.689,88.1,130.153,88.315,131.04z
		 M84.571,132.768c0.672,0,1.344,0,2.016,0c-0.188-0.869-0.37-1.742-1.44-1.728C85.519,132.18,84.199,131.628,84.571,132.768z"/>
	<path fill-rule="evenodd" clip-rule="evenodd" d="M78.523,133.344c-1.307-0.539-0.392,1.144-1.44,0.864c0-0.672,0-1.344,0-2.016
		c-0.036-0.636-1.222-0.123-1.728-0.288c0.417-1.089-0.792-0.553-0.576-1.44c1.877-0.149,2.388,1.068,3.744,1.44
		C78.523,132.384,78.523,132.864,78.523,133.344z"/>
	<path fill-rule="evenodd" clip-rule="evenodd" d="M93.499,139.392c0.418,0.158,1.488-0.336,1.44,0.288
		C95.263,140.668,92.844,140.533,93.499,139.392z"/>
	<path fill-rule="evenodd" clip-rule="evenodd" d="M88.315,141.696c0.96,0,1.92,0,2.88,0c0,0.48,0,0.96,0,1.44
		c-0.768,0-1.536,0-2.304,0C89.308,142.047,88.1,142.583,88.315,141.696z"/>
	<path fill-rule="evenodd" clip-rule="evenodd" d="M82.843,144c0.576,0,1.152,0,1.728,0c0.273,1.041-1.134,0.402-1.728,0.576
		C82.843,144.384,82.843,144.192,82.843,144z"/>
	<path fill-rule="evenodd" clip-rule="evenodd" d="M117.403,146.88c0.288,0,0.576,0,0.864,0c-0.188,1.636,0.378,4.027-0.288,5.184
		C116.694,151.429,117.744,148.459,117.403,146.88z"/>
	<path fill-rule="evenodd" clip-rule="evenodd" d="M88.315,147.744c0.48,0,0.96,0,1.44,0c-0.276,1.236,0.204,1.716,1.44,1.44
		c0,0.48,0,0.96,0,1.44c-1.102,0.142-0.919-1-2.304-0.576C89.033,148.946,87.891,149.128,88.315,147.744z"/>
	<path fill-rule="evenodd" clip-rule="evenodd" d="M131.803,152.064c1.041-0.272,0.402,1.134,0.576,1.728
		C131.338,154.065,131.977,152.658,131.803,152.064z"/>
	<path fill-rule="evenodd" clip-rule="evenodd" d="M103.867,152.928c0.506,0.166,1.692-0.348,1.728,0.288
		c-0.248,0.711-0.863,1.057-1.728,1.152C103.867,153.888,103.867,153.408,103.867,152.928z"/>
	<path fill-rule="evenodd" clip-rule="evenodd" d="M133.243,152.928c0.288,0,0.576,0,0.864,0c-0.158,0.418,0.336,1.488-0.288,1.44
		C132.851,154.664,133.371,153.473,133.243,152.928z"/>
	<path fill-rule="evenodd" clip-rule="evenodd" d="M123.451,154.368c0.288,0,0.576,0,0.864,0c-0.391,2.119,0.967,2.489,0.576,4.608
		c-0.288,0-0.576,0-0.864,0c-1.048,0.28-0.133-1.403-1.44-0.864C123.539,157.528,123.574,156.027,123.451,154.368z"/>
	<path fill-rule="evenodd" clip-rule="evenodd" d="M106.171,155.232c0.288,0,0.576,0,0.864,0c-0.157,0.418,0.337,1.489-0.288,1.44
		C105.779,156.968,106.299,155.776,106.171,155.232z"/>
	<path fill-rule="evenodd" clip-rule="evenodd" d="M115.099,155.232c0.288,0,0.576,0,0.864,0c-0.175,0.689,0.361,2.09-0.288,2.304
		C114.539,157.712,115.336,155.955,115.099,155.232z"/>
	<path fill-rule="evenodd" clip-rule="evenodd" d="M89.755,155.808c0.418,0.158,1.489-0.336,1.44,0.288
		C91.519,157.084,89.1,156.949,89.755,155.808z"/>
	<path fill-rule="evenodd" clip-rule="evenodd" d="M117.403,158.112c0,0.48,0,0.96,0,1.44c-0.646-0.123-0.918-0.618-1.44-0.864
		C115.667,157.721,116.858,158.24,117.403,158.112z"/>
	<path fill-rule="evenodd" clip-rule="evenodd" d="M130.939,158.112c0.288,0,0.576,0,0.864,0c-0.185,1.159,0.375,3.062-0.288,3.744
		C130.272,161.659,131.25,159.241,130.939,158.112z"/>
	<path fill-rule="evenodd" clip-rule="evenodd" d="M137.851,158.4c0.406,0.919-1.724,0.728-1.728,0.288
		C135.717,157.769,137.846,157.96,137.851,158.4z"/>
	<path fill-rule="evenodd" clip-rule="evenodd" d="M115.963,160.416c1.662,0.066,1.462,1.994,1.44,3.744
		c-1.284,0.324,0.175-2.095-1.44-1.44C115.963,161.952,115.963,161.184,115.963,160.416z"/>
	<path fill-rule="evenodd" clip-rule="evenodd" d="M94.939,161.856c1.094,0.25,1.344,1.344,3.168,0.864c0,0.768,0,1.536,0,2.304
		c-1.415,0.943-3.357,0.486-4.608-0.288C94.199,163.996,95.553,163.91,94.939,161.856z"/>
	<path fill-rule="evenodd" clip-rule="evenodd" d="M108.475,161.856c0.288,0,0.576,0,0.864,0c-0.157,0.418,0.336,1.489-0.288,1.44
		C108.083,163.592,108.603,162.4,108.475,161.856z"/>
	<path fill-rule="evenodd" clip-rule="evenodd" d="M88.891,162.72c0.48,0,0.96,0,1.44,0c0.295,0.968-0.896,0.448-1.44,0.576
		C88.891,163.104,88.891,162.912,88.891,162.72z"/>
	<path fill-rule="evenodd" clip-rule="evenodd" d="M98.683,162.72c0.288,0,0.576,0,0.864,0c-0.158,0.418,0.336,1.488-0.288,1.44
		C98.291,164.456,98.811,163.265,98.683,162.72z"/>
	<path fill-rule="evenodd" clip-rule="evenodd" d="M103.867,162.72c0.288,0,0.576,0,0.864,0c0,0.96,0,1.92,0,2.88
		c-1.57,0.446-0.68,3.352-1.44,4.608c-0.768,0-1.536,0-2.304,0c0-0.288,0-0.576,0-0.864c1.457-1.136,0.541-4.643,1.728-6.048
		c1.024-0.447,0.174,0.979,0.864,0.864C104.204,164.208,103.709,163.139,103.867,162.72z"/>
	<path fill-rule="evenodd" clip-rule="evenodd" d="M113.083,164.16c0.418,0.157,1.488-0.336,1.44,0.288
		C114.847,165.436,112.428,165.301,113.083,164.16z"/>
	<path fill-rule="evenodd" clip-rule="evenodd" d="M134.683,173.952c-0.955-0.292-0.96-1.536-2.304-1.44
		c0.288,0.96,1.44,1.056,1.728,2.016c0.887,0.215,0.351-0.993,1.44-0.576c0,0.48,0,0.96,0,1.44
		c-0.749-0.172-1.036,0.116-0.864,0.864c-0.479,0-0.96,0-1.44,0c0-0.576,0-1.152,0-1.728c-1.872,0.432-2.155-0.725-3.744-0.576
		c-0.44-1.096-1.208-1.864-2.304-2.304c0-0.48,0-0.96,0-1.44c0.749,0.172,1.037-0.116,0.864-0.864c0.288,0,0.576,0,0.864,0
		c1.024-0.448,0.174,0.978,0.864,0.864c0.733-0.131-0.292-2.021,1.152-1.44c0.175-0.688-0.362-2.089,0.288-2.304
		c1.091,0.252,0.433,2.255,1.728,2.304c0.662-0.682,0.103-2.585,0.288-3.744c1.307,0.539,0.392-1.144,1.44-0.864
		c-0.489,2.103-0.048,5.136-1.44,6.336c0.519,0.249,0.903,0.633,1.152,1.152c0.849-0.59-0.273-3.153,0.576-3.744
		c1.285,0.635,0.235,3.604,0.576,5.184C134.798,172.916,134.511,173.204,134.683,173.952z"/>
	<path fill-rule="evenodd" clip-rule="evenodd" d="M111.355,168.768c0.288,0,0.576,0,0.864,0c-0.157,0.418,0.337,1.489-0.288,1.44
		C110.963,170.504,111.482,169.312,111.355,168.768z"/>
	<path fill-rule="evenodd" clip-rule="evenodd" d="M95.803,169.344c0.48,0,0.96,0,1.44,0c-0.172,0.749,0.116,1.036,0.864,0.864
		c-0.158,0.418,0.336,1.489-0.288,1.44C97.14,170.887,95.888,170.699,95.803,169.344z"/>
	<path fill-rule="evenodd" clip-rule="evenodd" d="M118.843,170.208c0.288,0,0.576,0,0.864,0c-0.158,0.418,0.336,1.489-0.288,1.44
		C118.451,171.944,118.971,170.752,118.843,170.208z"/>
	<path fill-rule="evenodd" clip-rule="evenodd" d="M116.827,171.648c0.885-0.44,0.885,1.881,0,1.44
		C116.827,172.608,116.827,172.128,116.827,171.648z"/>
	<path fill-rule="evenodd" clip-rule="evenodd" d="M106.459,176.256c0.958-0.354,0.704,1.947,0.288,2.016
		C105.79,178.626,106.042,176.325,106.459,176.256z"/>
	<path fill-rule="evenodd" clip-rule="evenodd" d="M130.939,176.832c0.288,0,0.576,0,0.864,0c-0.031,1.472-0.15,3.03,0.576,3.744
		c-0.615-0.135-0.549,0.412-0.576,0.864c-1.188-0.228-1.792,0.127-2.016,0.864c-0.384,0-0.768,0-1.152,0c0-0.576,0-1.152,0-1.728
		c0.48,0,0.96,0,1.44,0c0-0.96,0-1.92,0-2.88C130.823,177.869,131.111,177.581,130.939,176.832z"/>
	<path fill-rule="evenodd" clip-rule="evenodd" d="M114.523,178.272c1.041-0.272,0.402,1.134,0.576,1.728
		C114.058,180.273,114.697,178.866,114.523,178.272z"/>
	<path fill-rule="evenodd" clip-rule="evenodd" d="M133.243,179.136c0.418,0.157,1.489-0.336,1.44,0.288
		C135.007,180.412,132.587,180.277,133.243,179.136z"/>
	<path fill-rule="evenodd" clip-rule="evenodd" d="M76.219,181.44c0.288,0,0.576,0,0.864,0c-0.158,0.418,0.336,1.489-0.288,1.44
		C75.827,183.176,76.347,181.984,76.219,181.44z"/>
	<path fill-rule="evenodd" clip-rule="evenodd" d="M69.595,182.304c0.885-0.441,0.885,1.88,0,1.44
		C69.595,183.264,69.595,182.784,69.595,182.304z"/>
	<path fill-rule="evenodd" clip-rule="evenodd" d="M77.947,182.304c0.958-0.354,0.705,1.947,0.288,2.016
		C77.277,184.674,77.53,182.374,77.947,182.304z"/>
	<path fill-rule="evenodd" clip-rule="evenodd" d="M67.867,184.32c0.288,0,0.576,0,0.864,0c-0.166,0.506,0.348,1.692-0.288,1.728
		C67.402,186.321,68.041,184.914,67.867,184.32z"/>
	<path fill-rule="evenodd" clip-rule="evenodd" d="M67.291,186.048c0,0.672,0,1.344,0,2.016c-1.307-0.539-0.392,1.144-1.44,0.864
		c0-0.768,0-1.536,0-2.304C66.738,186.839,66.202,185.631,67.291,186.048z"/>
	<path fill-rule="evenodd" clip-rule="evenodd" d="M71.035,186.624c0.867-0.29,0.511,0.642,0.576,1.152
		c0.065,0.415,0.86,0.1,0.864,0.576c0.292,0.986-2.164,0.686-2.304,0.288C70.271,187.78,71.548,188.098,71.035,186.624z"/>
	<path fill-rule="evenodd" clip-rule="evenodd" d="M79.963,191.232c0.288,0,0.576,0,0.864,0c-0.385,1.536,0.96,1.343,0.576,2.88
		c-0.887,0.215-0.351-0.993-1.44-0.576C79.963,192.769,79.963,192,79.963,191.232z"/>
	<path fill-rule="evenodd" clip-rule="evenodd" d="M207.547,193.536c0.48,0,0.96,0,1.44,0c-0.158,0.419,0.336,1.488-0.288,1.44
		C207.951,194.859,207.867,194.079,207.547,193.536z"/>
	<path fill-rule="evenodd" clip-rule="evenodd" d="M79.099,194.112c1.979,0.134,1.721,2.504,3.168,3.168c0,0.479,0,0.96,0,1.439
		c-1.089-0.417-0.553,0.792-1.44,0.576c-0.008-0.761,0.269-1.805-0.864-1.439c-0.202-0.854,0.602-2.714-0.864-2.305
		C79.099,195.072,79.099,194.592,79.099,194.112z"/>
	<path fill-rule="evenodd" clip-rule="evenodd" d="M81.403,200.16c-0.34,1.579,0.708,4.549-0.576,5.184
		c-0.239-1.584,0.668-4.316-0.864-4.607C79.667,199.769,80.858,200.288,81.403,200.16z"/>
	<path fill-rule="evenodd" clip-rule="evenodd" d="M190.843,201.024c1.682-0.146,1.226,1.847,3.168,1.439c0,0.769,0,1.536,0,2.305
		c-0.479,0-0.96,0-1.439,0c-0.567-0.777-0.563-2.125-1.729-2.305C190.843,201.984,190.843,201.504,190.843,201.024z"/>
	<path fill-rule="evenodd" clip-rule="evenodd" d="M187.963,201.601c1.935,0.081,1.355,2.677,1.44,4.607
		c-1.499,0.25,0.445-2.942-1.44-2.304C187.963,203.136,187.963,202.368,187.963,201.601z"/>
	<path fill-rule="evenodd" clip-rule="evenodd" d="M77.659,205.344c0.48,0,0.96,0,1.44,0c0,0.769,0,1.536,0,2.305
		c-0.479,0-0.96,0-1.44,0C77.659,206.88,77.659,206.112,77.659,205.344z"/>
	<path fill-rule="evenodd" clip-rule="evenodd" d="M80.827,206.784c1.041-0.272,0.401,1.134,0.576,1.728
		C80.362,208.785,81.001,207.378,80.827,206.784z"/>
	<path fill-rule="evenodd" clip-rule="evenodd" d="M189.403,207.648c0.287,0,0.575,0,0.863,0c-0.157,0.418,0.337,1.488-0.288,1.439
		C189.011,209.384,189.53,208.192,189.403,207.648z"/>
	<path fill-rule="evenodd" clip-rule="evenodd" d="M133.243,208.512c0,0.96,0,1.921,0,2.881c-1.253,0.379-1.749,1.515-2.592,2.304
		c-0.968,0.296-0.448-0.896-0.576-1.44C131.859,211.736,131.067,208.641,133.243,208.512z"/>
	<path fill-rule="evenodd" clip-rule="evenodd" d="M185.083,209.088c1.136-0.176,0.339,1.581,0.576,2.305
		c-1.049,0.279-0.134-1.403-1.44-0.864C183.938,209.48,185.622,210.396,185.083,209.088z"/>
	<path fill-rule="evenodd" clip-rule="evenodd" d="M190.843,215.136c-1.204-0.148-2.138-0.025-2.304,0.864
		c-1.041,0.272-0.402-1.134-0.576-1.728C189.573,214.249,190.595,212.976,190.843,215.136z"/>
	<path fill-rule="evenodd" clip-rule="evenodd" d="M131.803,215.136c0.48,0,0.96,0,1.44,0c0,0.48,0,0.96,0,1.44
		c-0.48,0-0.96,0-1.44,0C131.803,216.096,131.803,215.616,131.803,215.136z"/>
	<path fill-rule="evenodd" clip-rule="evenodd" d="M182.779,216c0.885-0.44,0.885,1.881,0,1.44
		C182.779,216.96,182.779,216.48,182.779,216z"/>
	<path fill-rule="evenodd" clip-rule="evenodd" d="M134.683,218.88c0.288,0,0.576,0,0.864,0c-0.157,0.419,0.336,1.489-0.288,1.44
		C134.291,220.616,134.811,219.425,134.683,218.88z"/>
	<path fill-rule="evenodd" clip-rule="evenodd" d="M140.73,218.88c0.48,0,0.96,0,1.44,0c0,0.48,0,0.96,0,1.44c-0.48,0-0.96,0-1.44,0
		C140.73,219.84,140.73,219.36,140.73,218.88z"/>
	<path fill-rule="evenodd" clip-rule="evenodd" d="M131.803,219.744c0.48,0,0.96,0,1.44,0c0.296,0.968-0.896,0.448-1.44,0.576
		C131.803,220.128,131.803,219.937,131.803,219.744z"/>
	<path fill-rule="evenodd" clip-rule="evenodd" d="M151.963,219.744c1.102-0.142,0.92,1,2.304,0.576c0,0.768,0,1.536,0,2.304
		c-0.479,0-0.96,0-1.439,0C153.369,220.833,151.42,221.535,151.963,219.744z"/>
	<path fill-rule="evenodd" clip-rule="evenodd" d="M184.219,219.744c1.385-0.424,1.202,0.718,2.304,0.576c0,0.576,0,1.151,0,1.728
		c-0.479,0-0.96,0-1.439,0c0.172-0.748-0.116-1.036-0.864-0.863C184.219,220.704,184.219,220.225,184.219,219.744z"/>
	<path fill-rule="evenodd" clip-rule="evenodd" d="M194.011,220.32c1.041-0.272,0.401,1.134,0.576,1.728
		C193.546,222.321,194.186,220.914,194.011,220.32z"/>
	<path fill-rule="evenodd" clip-rule="evenodd" d="M147.354,222.624c1.015,0.042,1.242,0.87,1.729,1.44c-0.576,0-1.152,0-1.729,0
		C147.354,223.584,147.354,223.104,147.354,222.624z"/>
	<path fill-rule="evenodd" clip-rule="evenodd" d="M145.915,223.488c0.215,0.887-0.993,0.351-0.576,1.439
		c-0.506-0.165-1.692,0.349-1.728-0.287C143.955,223.832,144.654,223.379,145.915,223.488z"/>
	<path fill-rule="evenodd" clip-rule="evenodd" d="M147.354,227.809c0.288,0,0.576,0,0.864,0c-0.166,0.506,0.349,1.691-0.288,1.728
		C146.891,229.809,147.529,228.402,147.354,227.809z"/>
	<path fill-rule="evenodd" clip-rule="evenodd" d="M82.843,230.112c0.288,0,0.576,0,0.864,0c-0.183,0.97,0.371,2.675-0.288,3.168
		C82.206,233.245,83.133,231.07,82.843,230.112z"/>
	<path fill-rule="evenodd" clip-rule="evenodd" d="M86.587,230.977c0.288,0,0.576,0,0.864,0c-0.157,0.418,0.337,1.488-0.288,1.439
		C86.195,232.712,86.715,231.521,86.587,230.977z"/>
	<path fill-rule="evenodd" clip-rule="evenodd" d="M86.587,234.72c0.288,0,0.576,0,0.864,0c-0.157,0.419,0.337,1.489-0.288,1.44
		C86.195,236.456,86.715,235.265,86.587,234.72z"/>
	<path fill-rule="evenodd" clip-rule="evenodd" d="M91.195,234.72c0.288,0,0.576,0,0.864,0c-0.176,0.689,0.361,2.09-0.288,2.305
		C90.635,237.2,91.432,235.443,91.195,234.72z"/>
	<path fill-rule="evenodd" clip-rule="evenodd" d="M113.083-4.32c0.272,1.041-1.134,0.402-1.728,0.576c0,0.672,0,1.344,0,2.016
		c-1.3,0.044-3.049-0.361-3.168,0.864c-0.384,0-0.768,0-1.152,0c0-1.153,0.727-1.578,2.016-1.44
		C109.78-3.404,111.509-5.022,113.083-4.32z"/>
	<path fill-rule="evenodd" clip-rule="evenodd" d="M152.827,8.928c-0.641-1.856-2.833-2.159-3.744-3.744c-1.056,0-2.112,0-3.168,0
		c0-0.48,0-0.96,0-1.44c0.97-0.182,2.675,0.371,3.168-0.288c-0.188-1.157-2.496-0.192-2.88-1.152
		c-0.625-0.048-0.131,1.021-0.288,1.44c-0.288,0-0.576,0-0.864,0c-1.023-0.417-1.109-1.771-2.88-1.44
		c0.372-1.14-0.948-0.588-0.576-1.728c0.701,0.451,1.058,1.247,2.592,0.864c0.802,0.13-0.226-1.569,0.576-1.44
		c1.136-0.176,0.339,1.582,0.576,2.304c1.136,0.176,0.339-1.581,0.576-2.304c0.746,0.502,2.345,0.151,2.304,1.44
		c0.96,0,1.92,0,2.88,0c0,0.48,0,0.96,0,1.44c0.576,0,1.152,0,1.729,0c-0.001,1.152,0.727,1.577,2.016,1.44
		c0.658,1.454,1.837,2.388,3.168,3.168c0.015,2.194,1.672,2.744,2.304,4.32c-2.514-0.462-5.149-0.802-6.048-2.88
		C153.787,8.928,153.307,8.928,152.827,8.928c0.796,1.412,1.449,2.966,3.744,2.88c0.194,1.054,0.51,1.985,2.016,1.728
		c0.215,0.887-0.993,0.351-0.576,1.44c-0.768,0-1.536,0-2.304,0c1.027,0.7,0.842,2.614,1.439,3.744c1.573-0.015,2.561,1.225,3.744,0
		c0,0.768,0,1.536,0,2.304c-0.768,0-1.536,0-2.304,0c0,0.384,0,0.768,0,1.152c0.036,0.636,1.222,0.122,1.728,0.288
		c0,0.48,0,0.96,0,1.44c-0.575,0-1.151,0-1.728,0c0.432-2.352-1.914-1.926-2.016-3.744c-0.769,0-1.536,0-2.305,0
		c0.207-1.455-1.757-0.739-1.439-2.304c-2.492,0.188-3.185-1.424-5.473-1.44c0.276-1.236-0.203-1.716-1.439-1.44
		c0.316-1.564-1.003-1.493-0.576-3.168c-1.39,0.142-2.336-0.161-2.304-1.44c-0.48,0-0.96,0-1.44,0
		c-0.424,1.384,0.718,1.202,0.576,2.304c0.479,0,0.96,0,1.44,0c0,0.48,0,0.96,0,1.44c-1.537,0.385-1.344-0.961-2.881-0.576
		c0.615-2.343-1.359-2.096-0.863-4.32c-0.131-0.733-2.021,0.292-1.44-1.152c-0.768,0-1.536,0-2.304,0
		c0.566,0.777,0.563,2.125,1.728,2.304c-0.044,3.212,0.565,5.771,2.016,7.488c-2.968,0.567-3.575-1.226-5.76-1.44
		c0-0.48,0-0.96,0-1.44c0.672,0,1.344,0,2.016,0c-0.894-1.364,0.38-1.991,0-4.32c-1.133-0.403-1.955-1.118-3.744-0.864
		c0,0.384,0,0.768,0,1.152c0.64,0.224,0.772,0.956,1.728,0.864c0,1.056,0,2.112,0,3.168c-0.506-0.166-1.692,0.348-1.728-0.288
		c-0.448-1.023,0.978-0.174,0.864-0.864c-0.124-0.644-1.419-0.117-2.016-0.288c-0.644,0.124-0.117,1.419-0.288,2.016
		c-1.451-0.396-1.633,0.479-1.44,1.728c-2.762-0.074-5.459-0.083-7.488,0.576c0.01-2.122-2.277-1.947-3.168-3.168
		c-0.134-0.614,0.412-0.548,0.864-0.576c0-0.384,0-0.768,0-1.152c-0.116-0.556-1.319-0.025-0.864-1.152c-0.384,0-0.768,0-1.152,0
		c-0.337,0.046-0.243,0.525-0.288,0.864c-0.768,0-1.536,0-2.304,0c0.424-1.384-0.718-1.202-0.576-2.304
		c-1.565,0.316-1.493-1.003-3.168-0.576c0-0.672,0-1.344,0-2.016c-1.63-1.154-4.414-1.155-4.32-4.032c0.768,0,1.536,0,2.304,0
		c-0.121,1.561,1.99,0.89,2.016,2.304c3.204-0.42,2.2,3.368,4.608,3.744c0,0.48,0,0.96,0,1.44c0.384,0,0.768,0,1.152,0
		c0.659-0.493,0.106-2.198,0.288-3.168c0.48,0,0.96,0,1.44,0c0,0.672,0,1.344,0,2.016c-0.048,0.625,1.021,0.13,1.44,0.288
		c0.367-0.594,0.432-1.489,0.864-2.016c0.048-0.625-1.021-0.13-1.44-0.288c-0.448-1.023,0.978-0.174,0.864-0.864
		c-0.589-0.947-1.338-1.733-1.728-2.88c1.311,0.321,1.857,1.407,3.168,1.728c0.135,0.614-0.411,0.548-0.864,0.576
		c0,0.384,0,0.768,0,1.152c0.214,0.649,1.615,0.112,2.304,0.288c-0.651,2.187,1.566,1.506,1.44,3.168c1.056,0,2.112,0,3.168,0
		c-0.375,0.778-1.091,1.214-1.728,1.728c0.346,1.286,2.049,1.215,3.744,1.152c-0.385-0.863-1.82-0.676-2.016-1.728
		c-0.159-0.639,0.55-0.41,0.576-0.864c-0.124-0.452-0.906-0.246-0.576-1.152c-0.576,0-1.152,0-1.728,0
		c-0.274-1.646-1.505-2.335-2.016-3.744c0.96,0,1.92,0,2.88,0c0.767,1.441,3.083,1.333,5.184,1.44
		c0.215-0.887-0.993-0.351-0.576-1.44c-0.576,0-1.152,0-1.728,0c0.385-1.537-0.96-1.343-0.576-2.88
		c1.61,0.023,2.631,1.296,2.88-0.864c0.576,0,1.152,0,1.728,0c0,0.288,0,0.576,0,0.864c2.83-0.333,3.118,1.875,5.184,2.304
		c0,0.576,0,1.152,0,1.728c1.213,0.323,2.005,1.067,2.592,2.016c0.924-1.224-0.25-2.812-2.016-2.304c0-0.48,0-0.96,0-1.44
		c1.39-0.142,2.335,0.16,2.304,1.44c0.384,0,0.768,0,1.152,0c0.337-0.046,0.242-0.525,0.288-0.864c0.575,0,1.151,0,1.728,0
		c0,0.288,0,0.576,0,0.864c0.384,0,0.768,0,1.152,0c0.399-0.465,0.594-1.134,1.151-1.44c1.024,1.087,3.092,1.132,3.456,2.88
		C151.675,8.928,152.251,8.928,152.827,8.928z M135.547,5.472c0.048-0.625-1.021-0.13-1.44-0.288
		C133.452,6.325,135.871,6.46,135.547,5.472z M151.963,11.808c0.28-1.048-1.403-0.133-0.864-1.44
		c-2.382,0.366-1.876-2.155-3.744-2.304C148.549,9.654,149.436,11.552,151.963,11.808z"/>
	<path fill-rule="evenodd" clip-rule="evenodd" d="M104.731,3.744c-0.284,0.772-1.316,0.796-0.864,2.304
		c-2.008,0.376-2.213-1.05-3.744-1.152C100.79,3.644,103.878,4.812,104.731,3.744z"/>
	<path fill-rule="evenodd" clip-rule="evenodd" d="M115.963,5.184c0.951,0.777,2.778,0.678,2.88,2.304c-0.672,0-1.344,0-2.016,0
		C117.424,5.835,115.746,6.457,115.963,5.184z"/>
	<path fill-rule="evenodd" clip-rule="evenodd" d="M86.587,8.064c0.215-0.887-0.993-0.351-0.576-1.44
		c1.537,0.385,1.343-0.96,2.88-0.576c0.272,2.384-2.146,2.078-3.456,2.88c-0.359,0.697-1.111,1.001-0.864,2.304
		c1.1-0.82,2.166-1.674,4.32-1.44c-0.11,0.753-0.923,0.805-0.576,2.016c1.048-0.104,1.145-1.159,2.016-1.44
		c-0.015,1.07,0.859,1.252,1.728,1.44c0,0.576,0,1.152,0,1.728c0.672,0,1.344,0,2.016,0c0.433-1.873-0.725-2.155-0.576-3.744
		c1.537-0.385,1.343,0.961,2.88,0.576c0.05,1.103,0.913,1.391,2.016,1.44c0.014-1.522,1.668-1.404,1.728-2.88
		c1.188,0.229,1.792-0.127,2.016-0.864c0.384,0,0.768,0,1.152,0c-0.809,2.633,2.458,1.19,2.304,3.168
		c1.048,0.28,0.133-1.403,1.44-0.864c0.313-1.177-0.308-1.42-0.864-1.728c-0.176-1.136,1.581-0.339,2.304-0.576
		c0.434,1.39,1.472,2.176,2.88,2.592c-0.933,0.699-1.918,1.346-2.016,2.88c-2.327-0.215-4.006,0.218-5.472,0.864
		c-0.176,1.136,1.582,0.338,2.304,0.576c0.438,2.358-0.871,2.969-0.576,5.184c-1.353-0.489-0.375,1.353-1.728,0.864
		c-0.513,1.474,0.764,1.156,0.864,2.016c-1.655,0.215-2.71-0.169-3.744-0.576c0.063-2.271-2.709-1.707-2.88-3.744
		c-2.279-0.263-3.771,0.261-5.472,0.576c1.088-0.736,1.173-2.475,2.304-3.168c-0.344-0.808-1.043-1.261-2.304-1.152
		c0.317-1.564-1.646-0.849-1.44-2.304c-0.384,0-0.768,0-1.152,0c-0.517,1.691-4.337,0.078-4.32,2.304
		c-1.023,0.448-0.174-0.978-0.864-0.864c-1.042,0.522,0.508,0.794,0.288,1.44c1.248,0,2.496,0,3.744,0
		c0.372,1.14-0.948,0.588-0.576,1.728c-0.672,0-1.344,0-2.016,0c-0.014,1.522-1.668,1.404-1.728,2.88
		c1.93-1.239,4.312-2.024,6.624-2.88c0-0.576,0-1.152,0-1.728c0.288,0,0.576,0,0.864,0c0.782,0.082,0.674,1.054,1.44,1.152
		c-0.066,1.086-2.208,0.097-1.44,2.016c-2.075-0.251-2.546,1.102-3.168,2.304c-2.474-0.266-3.534,0.882-3.744,2.88
		c-0.761,0.007-1.805-0.269-1.44,0.864c-3.273,0.663-5.04,2.833-6.624,5.184c0-0.768,0-1.536,0-2.304
		c-2.476,0.212-1.558,3.818-3.168,4.896c1.095,0.537,1.688,1.576,1.44,3.456c-0.48,0-0.96,0-1.44,0c0-1.056,0-2.112,0-3.168
		c-0.384,0-0.768,0-1.152,0c-0.649,0.214-0.112,1.616-0.288,2.304c-0.749-0.172-1.037,0.116-0.864,0.864c-0.48,0-0.96,0-1.44,0
		c-1.521-2.539,0.422-5.148,0-8.352c0.288,0,0.576,0,0.864,0c-0.202-2.41,0.143-4.273,0.576-6.048
		c1.14,0.372,0.588-0.948,1.728-0.576c-0.427-1.674,0.893-1.603,0.576-3.168c1.279,0.032,1.582-0.914,1.44-2.304
		c1.25,0.193,2.123,0.011,1.728-1.44c1.29,0.137,2.017-0.288,2.016-1.44C83.023,12.564,83.346,8.855,86.587,8.064z M79.099,14.976
		c-0.001,1.919-0.961,2.879-2.88,2.88c0,0.48,0,0.96,0,1.44c2.188,0.292,2.33-0.896,3.744,0c0.513-1.473-0.764-1.156-0.864-2.016
		c2.146,0.43,3.855,0.708,5.472-0.576c-0.556-0.308-1.177-0.551-0.864-1.728c-1.381-0.5-1.866,1.376-2.88,0.288
		c0.357-0.699,1.135-0.977,1.44-1.728C80.305,13.11,80.536,14.877,79.099,14.976z M77.083,23.04c1.506,0.354,1.834-0.47,2.88-0.576
		c-0.513-1.474,0.764-1.156,0.864-2.016c-0.036-0.636-1.222-0.123-1.729-0.288C79.069,21.762,77.223,21.548,77.083,23.04z
		 M82.267,21.6c0.544-0.127,1.735,0.392,1.44-0.576c-0.48,0-0.96,0-1.44,0C82.267,21.216,82.267,21.408,82.267,21.6z M74.779,26.784
		c1.78,0.148,2.352-0.912,2.88-2.016C75.879,24.62,75.307,25.68,74.779,26.784z M100.987,18.72c0.544-0.128,1.736,0.392,1.44-0.576
		c-1.857-0.639-3.482-1.51-4.896-2.592c-0.636,0.036-0.122,1.222-0.288,1.728C97.946,18.305,100.938,17.041,100.987,18.72z"/>
	<path fill-rule="evenodd" clip-rule="evenodd" d="M88.891,8.64c0.035-1.213,2.21-0.286,3.168-0.576
		c-0.372,1.14,0.948,0.588,0.576,1.728C92.233,8.562,89.928,9.235,88.891,8.64z"/>
	<path fill-rule="evenodd" clip-rule="evenodd" d="M127.195,137.952c0.746,0.502,2.345,0.151,2.304,1.44c0.768,0,1.536,0,2.304,0
		c0-0.384,0-0.768,0-1.152c-1.124-0.892-1.84-2.192-4.32-1.728c-0.055,1.289-1.422,1.266-1.152,2.88
		c-0.782-0.082-0.674-1.054-1.44-1.152c0-0.192,0-0.384,0-0.576c0.633-0.903,1.37-1.702,1.44-3.168
		c-0.089-0.391-0.721-0.239-1.152-0.288c-0.625-0.048-0.13,1.021-0.288,1.44c-0.768,0-1.536,0-2.304,0
		c0.101,1.147,1.397,1.099,0.864,2.88c-1.481-0.138-1.998,0.69-2.304,1.728c-0.48,0-0.96,0-1.44,0
		c-0.183-0.97,0.371-2.675-0.288-3.168c-1.554-0.114,0.402,3.282-1.152,3.168c0.888,0.847,0.661,2.847-0.864,2.88
		c0,0.768,0,1.536,0,2.304c-1.5-0.252-1.726,0.77-2.304,1.44c-0.646-0.122-0.918-0.618-1.44-0.864c0.82-1.1,1.675-2.166,1.44-4.32
		c1.273,0.216,0.651-1.461,2.304-0.864c0-0.768,0-1.536,0-2.304c-1.372,0.124-2.51,0.014-2.88-0.864
		c0.243-1.293,1.331-1.741,1.44-3.168c-0.089-0.391-0.721-0.239-1.152-0.288c-0.625-0.048-0.131,1.021-0.288,1.44
		c-0.672,0-1.344,0-2.016,0c-0.055,1.289-1.422,1.266-1.152,2.88c-0.932,0.356-0.22-0.932-1.152-0.576
		c-0.57,0.683-0.544,3.219,0.576,3.168c-0.07,0.89-1.229,0.691-1.44,1.44c0.111,0.753,0.923,0.805,0.576,2.016
		c-0.672,0-1.344,0-2.016,0c-0.39,0.282-0.373,0.971-0.864,1.152c0.698,0.788,0.698,1.804,0,2.592
		c0.706-0.254,1.057-0.863,2.304-0.576c0.273,1.041-1.134,0.402-1.728,0.576c0.563,2.579-1.622,2.41-3.744,2.304
		c-0.513-1.473,0.764-1.156,0.864-2.016c-0.707-1.054-0.944,0.757-1.44,0.864c-0.246,0.918,0.251,1.093,0.576,1.44
		c0.05,0.722-0.645,0.699-0.864,1.152c-1.532,0.092-0.822-2.057-1.44-2.88c-1.168-0.112-0.317,1.795-0.576,2.592
		c-0.048,0.625,1.021,0.13,1.44,0.288c-0.759,1.544,0.155,4.763-1.44,5.472c-0.28,1.048,1.403,0.133,0.864,1.44
		c-0.284,0.772-1.316,0.796-0.864,2.304c-0.288,0-0.576,0-0.864,0c-0.701-1.315-3.265-0.768-5.184-0.864
		c0.216-1.272-1.461-0.65-0.864-2.304c1.39,0.142,2.335-0.161,2.304-1.44c-1.024-0.448-0.174,0.978-0.864,0.864
		c-0.782-0.082-0.674-1.054-1.44-1.152c0-0.192,0-0.384,0-0.576c-0.093-0.957,1.416-0.312,0.864-1.728
		c-1.23-0.929-2.97,0.093-3.168,1.152c-0.623-0.337-1.103-0.817-1.44-1.44c0.748,0.172,1.036-0.115,0.864-0.864
		c0.875-0.181,2.481,0.369,2.88-0.288c0.231-1.095-1.362-0.366-2.016-0.576c-0.208-2.031,0.153-3.494,0.576-4.896
		c-0.205-0.947-1.639-0.665-2.304-1.152c1.05-1.445,4.218-0.774,3.744-3.744c3.635-0.013,3.405-3.892,6.624-4.32
		c0.415-0.065,0.101-0.859,0.576-0.864c1.212-0.444,0.046,1.49,0.864,1.44c0.191-0.966-0.034-3.992-1.152-4.608
		c0.1-0.859,1.377-0.542,0.864-2.016c0.48,0,0.96,0,1.44,0c0-0.768,0-1.536,0-2.304c1.706,1.241-1.642,5.213,1.152,6.048
		c0.57-0.683,0.544-3.219-0.576-3.168c-0.295-0.967,0.896-0.448,1.44-0.576c1.342-0.579,0.47-3.371,1.152-4.608
		c1.27-0.406,0.004,1.724,0.864,1.728c0.659-0.493,0.106-2.198,0.288-3.168c1.408-0.127,0.917-2.155,2.304-2.304
		c-0.106,1.43-0.16,2.912-1.44,3.168c0,0.384,0,0.768,0,1.152c2.06,0.893,0.099,3.216,0,4.608c0.214,0.65,1.615,0.113,2.304,0.288
		c0.217-1.272-1.461-0.65-0.864-2.304c0.768,0,1.536,0,2.304,0c0-0.384,0-0.768,0-1.152c-0.947,0.067-1.249-1.993-0.576-2.592
		c1.212-0.444,0.045,1.49,0.864,1.44c0.809-2.071,2.742-3.018,2.592-6.048c-0.384,0-0.768,0-1.152,0
		c-0.669,0.674-1.071,1.617-0.864,3.168c-0.768,0-1.536,0-2.304,0c-0.275-2.772,0.972-4.02,3.744-3.744c0-1.248,0-2.496,0-3.744
		c-1.089-0.417-0.553,0.792-1.44,0.576c0.254-0.706,0.863-1.057,0.576-2.304c0.48,0,0.96,0,1.44,0c-0.999-1.089-0.023-1.13,0-2.592
		c-0.089-0.391-0.721-0.239-1.152-0.288c-0.731,1.189-1.418,2.422-2.016,3.744c-1.192,0.041-0.3-2.004-0.576-2.88
		c1.283-0.541,2.337-1.311,2.304-3.168c1.089,0.417,0.553-0.792,1.44-0.576c0,0.48,0,0.96,0,1.44c0.48,0,0.96,0,1.44,0
		c0.818,0.05-0.348-1.884,0.864-1.44c0.022,1.75,0.222,3.678-1.44,3.744c-0.285,0.962,0.732,3.228-0.864,2.88
		c0.181,0.875-0.369,2.48,0.288,2.88c1.021-1.38,2.218-2.582,2.016-5.184c0.288,0,0.576,0,0.864,0c0-2.784,0-5.568,0-8.352
		c-2.573-0.268-1.965,2.644-3.744,3.168c-0.392-1.735,0.569-2.119,0.576-3.456c0.049-0.625-1.021-0.131-1.44-0.288
		c-0.621-1.249-0.621-1.919,0-3.168c0.768,0,1.536,0,2.304,0c0.306,1.038,0.822,1.866,2.304,1.728
		c-0.081,1.521,0.084,2.796,1.44,2.88c0.172-0.749-0.116-1.037-0.864-0.864c0-0.672,0-1.344,0-2.016
		c0.956-0.092,1.771-0.043,2.016,0.576c-1.275-3.067,4.062-3.278,7.2-2.304c0-0.384,0-0.768,0-1.152
		c-0.215-0.649-1.616-0.112-2.304-0.288c0.487-0.666,0.746-1.558,0.576-2.88c2.026,0.683,1.484-1.204,2.304-1.728
		c-0.486-0.665-0.746-1.558-0.576-2.88c1.722,1.542,2.272,4.256,2.88,6.912c1.653,0.597,1.031-1.081,2.304-0.864
		c0.313-1.177-0.308-1.42-0.864-1.728c-0.273-1.041,1.134-0.401,1.728-0.576c-0.308,1.556,0.359,2.137,0.576,3.168
		c1.46-0.02,2.524,0.356,2.304,2.016c0.932,0.164,1.449-0.087,1.728-0.576c0.722-0.05,0.699,0.645,1.152,0.864
		c-0.243,1.293-1.331,1.742-1.44,3.168c1.656,0.689,4.079-0.332,5.185-1.152c0.164,0.932-0.088,1.449-0.576,1.728
		c-0.216,0.888,0.992,0.351,0.576,1.44c2.874-0.474,3.025,1.774,5.472,1.728c0.176,1.136-1.581,0.339-2.304,0.576
		c-0.177,1.136,1.581,0.339,2.304,0.576c1.604,1.755,2.259,4.461,4.896,5.184c0.637-0.036,0.123-1.222,0.288-1.728
		c-0.046-0.337-0.524-0.243-0.863-0.288c0-0.576,0-1.152,0-1.728c1.089,0.417,0.552-0.792,1.439-0.576
		c-0.28,1.048,1.403,0.133,0.864,1.44c0.384,0,0.768,0,1.152,0c0.836-1.043,0.011-2.88-0.288-3.744
		c1.083,0.549,1.593,1.671,2.592,2.304c0.649-0.214,0.112-1.615,0.288-2.304c0.479,0,0.96,0,1.439,0
		c0.158,0.418-0.336,1.489,0.288,1.44c1.095,0.23,0.366-1.362,0.576-2.016c-1.205-0.619-1.022-2.625-1.44-4.032
		c0.887,0.649,1.758,1.314,2.305,2.304c0.871-0.281,0.968-1.336,2.016-1.44c0.385,1.537-0.961,1.343-0.576,2.88
		c0.968,0.296,0.448-0.896,0.576-1.44c0.769,0,1.536,0,2.304,0c0.158,0.418-0.336,1.488,0.288,1.44
		c0.866,0.29,0.511-0.642,0.576-1.152c-0.915-0.429-1.191-1.497-2.304-1.728c0.076-1.229,0.156-2.46-0.864-2.592
		c0-0.384,0-0.768,0-1.152c2.607,0.592,1.341-2.691,3.744-2.304c0.424-1.384-0.718-1.202-0.576-2.304c0.769,0,1.536,0,2.304,0
		c-0.424,2.056,0.916,2.349,0.576,4.32c0.282,0.39,0.971,0.373,1.152,0.864c0.501-1.277-0.81-3.217-0.288-5.472
		c0.049-0.625-1.021-0.13-1.44-0.288c0-0.672,0-1.344,0-2.016c-0.128-0.832-2.176,0.256-2.304-0.576
		c0.793-1.127,3.731-0.109,2.88-2.88c-0.519,0.269-1.428,1.618-2.304,0.576c-0.272-1.041,1.135-0.401,1.728-0.576
		c0-0.672,0-1.344,0-2.016c-1.102-0.142-0.919,1-2.304,0.576c-0.075-1.803,0.891-2.565,2.304-2.88
		c-0.163-0.932,0.088-1.449,0.576-1.728c-0.433-0.527-0.497-1.422-0.863-2.016c-1.137-0.176-0.339,1.582-0.576,2.304
		c-1.089-0.417-0.553,0.792-1.44,0.576c-0.149-1.589,1.009-1.872,0.576-3.744c1.247,0.287,1.599-0.322,2.304-0.576
		c0.455-1.657-0.983-5.208,0.864-5.472c0-0.576,0-1.152,0-1.728c-2.115-0.67-1.385-3.889-0.864-5.76
		c-1.212-0.444-0.046,1.49-0.863,1.44c-1.071-2.097-1.955-4.381-3.744-5.76c0.575,0,1.151,0,1.728,0
		c-0.092-0.956-0.043-1.771,0.576-2.016c0.049-0.625-1.021-0.13-1.44-0.288c0.591-2.744-2.602-3.654-0.863-5.76
		c-0.036-0.636-1.222-0.123-1.729-0.288c-0.802-0.13,0.226,1.57-0.576,1.44c-1.594-0.134-1.333-2.123-2.88-2.304
		c0.428-1.483-0.873-1.238-0.576-2.592c-1.97-1.39-3.365-3.354-3.743-6.336c1.211,0.348,1.263-0.465,2.016-0.576
		c0,0.48,0,0.96,0,1.44c0.479,0,0.96,0,1.44,0c0.543-0.704,0.727-1.769,2.304-1.44c-1.183,2.521,0.299,3.299,1.151,5.184
		c1.096,0.231,0.367-1.362,0.576-2.016c-0.638-0.514-1.354-0.95-1.728-1.728c1.675-0.427,1.604,0.893,3.168,0.576
		c-0.257,1.793,0.511,2.561,2.304,2.304c0,0.768,0,1.536,0,2.304c1.618-1.318-0.788-3.374,0-5.76
		c-2.072-1.096-3.098-3.239-4.607-4.896c-0.296-0.968,0.896-0.448,1.439-0.576c0.085,1.777,2.444,1.654,3.168,0.576
		c-0.288-0.96-1.44-1.056-1.728-2.016c1.546,0.394,1.755-0.549,2.304-1.152c-1.023-0.224-1.605-0.891-2.304-1.44
		c0-0.192,0-0.384,0-0.576c0.45-0.701,1.246-1.057,0.863-2.592c-1.668-0.636-0.795-3.813-2.88-4.032
		c-0.202-0.854,0.603-2.714-0.863-2.304c0.175-0.688-0.362-2.089,0.287-2.304c0.592,0.103,1.165,1.685,2.017,0.576
		c-0.424-1.016-1.951-0.928-1.44-2.88c-1.247,0.287-1.598-0.322-2.304-0.576c0.817-3.256,0.027-4.14,0-7.488
		c0.706,0.254,1.057,0.863,2.304,0.576c-0.33,0.906,0.452,0.7,0.576,1.152c0.398,1.166-0.625,0.911-0.576,1.728
		c0.036,0.636,1.222,0.123,1.729,0.288c0.556-0.116,0.024-1.319,1.151-0.864c0-0.384,0-0.768,0-1.152
		c-1.042-0.398-0.801-2.079-2.304-2.016c0.035-1.213,2.21-0.286,3.168-0.576c0.441,1.575,3.014,1.018,2.88,3.168
		c2.922-0.234,2.496,2.88,5.185,2.88c-0.347,2.555,2.704,1.711,2.304,4.32c1.604,0.796,0.983,3.817,3.168,4.032
		c-0.235,1.58,1.015,1.673,0.576,3.456c1.914,0.966,0.926,4.834,3.168,5.472c0.341,1.867,0.01,4.406,1.439,5.184
		c0,0.768,0,1.536,0,2.304c-1.377-0.394-1.377,4.137,0,3.744c0,3.456,0,6.912,0,10.368c-0.287,0-0.575,0-0.863,0
		c0.442,3.707-0.769,5.76-0.576,9.216c-1.882-0.634,0.153,2.649-1.729,2.016c0,1.056,0,2.112,0,3.168c-0.479,0-0.96,0-1.439,0
		c-0.097,6.263-0.615,8.578-0.576,14.976c-1.444-0.58-0.419,1.31-1.152,1.44c-0.901-1.21-1.196-3.027-1.151-5.184
		c-0.385,0-0.769,0-1.152,0c-0.649,0.214-0.112,1.615-0.288,2.304c-0.576,0-1.151,0-1.728,0c0-0.48,0-0.96,0-1.44
		c-0.48,0-0.96,0-1.44,0c2.729,3.373,4.495,6.84,2.88,12.672c-0.688-1.039-1.111-2.345-1.439-3.744
		c-0.888-0.215-0.352,0.993-1.44,0.576c0.389-2.02-0.554-2.71-0.576-4.32c-1.14-0.372-0.588,0.948-1.728,0.576
		c0.502,2.282-1.051,6.619,0.864,7.488c0.491,2.1-1.037,6.22,0.863,6.912c-0.42,1.404,0.934,4.581-0.863,4.608
		c0,0.864,0,1.728,0,2.592c0.762,0.774,1.773,1.298,2.88,1.728c0.246,1.303-0.505,1.607-0.864,2.304
		c-0.957,0.093-0.312-1.416-1.728-0.864c-0.354,0.992-0.476,2.213-1.729,2.304c-0.367,1.168,0.856,3.928-0.864,3.744
		c0,1.152,0,2.304,0,3.456c0.767,0.098,0.658,1.069,1.44,1.152c-0.541,1.561-0.098,2.637-0.576,5.184
		c-1.178-0.313-0.736,0.991-1.44,1.152c-0.048,0.625,1.021,0.13,1.44,0.288c0,0.48,0,0.96,0,1.44c-1.152,0-2.304,0-3.456,0
		c-0.556,0.116-0.025,1.319-1.152,0.864c-0.312,1.561,0.265,2.232,0.864,2.88c-0.576,0-1.152,0-1.728,0
		c-0.175,0.594,0.465,2-0.576,1.728c-0.216,0.887,0.993,0.351,0.576,1.44c0.215,0.887-0.993,0.351-0.576,1.44c-0.48,0-0.96,0-1.44,0
		c0,1.056,0,2.112,0,3.168c-0.576,0-1.151,0-1.728,0c0,0.384,0,0.768,0,1.152c1.225,0.119,0.819,1.868,0.864,3.168
		c-1.648-0.112-0.478,2.595-2.305,2.304c-0.244,2.732-2.535,3.416-2.88,6.048c-1.537-0.385-1.343,0.961-2.88,0.576
		c-0.772,1.628-1.688,3.112-1.728,5.472c-0.558,0.403-1.571,0.349-1.44,1.44c-0.672,0-1.344,0-2.016,0
		c-0.502,1.323-0.907,2.741-2.593,2.88c-0.061,2.915-2.579,3.372-4.319,4.608c0-1.248,0-2.496,0-3.744
		c-1.22-0.163-1.167,0.946-1.729,1.44c-1.192,0.041-0.3-2.004-0.576-2.88c0.48,0,0.96,0,1.44,0c-0.991-2.87,0.737-4.94-0.576-7.488
		c1.048,0.28,0.133-1.403,1.44-0.864c0-0.48,0-0.96,0-1.44c-1.089-0.417-0.553,0.792-1.44,0.576c-0.485-0.57-0.714-1.398-1.728-1.44
		c-0.328-2.36-0.186-5.191-2.016-6.048c1.889-2.193-1.01-3.247-0.864-5.472c0.048-0.625-1.021-0.13-1.44-0.288
		c-0.083-0.78,0.405-2.133-0.864-1.728c0.284-0.772,1.316-0.796,0.864-2.304c-1.177-0.313-1.42,0.308-1.728,0.864
		c-0.312-1.321-2.232-1.032-2.016-2.88c-1.247-0.288-1.598,0.322-2.304,0.576c0.176-1.136-1.582-0.339-2.304-0.576
		C127.195,139.488,127.195,138.72,127.195,137.952z M172.123,32.256c0-1.056,0-2.112,0-3.168c-0.48,0-0.96,0-1.44,0
		C170.768,30.54,171.5,31.343,172.123,32.256z M158.587,50.112c2.187-0.651,1.506,1.566,3.168,1.44c0-0.48,0-0.96,0-1.44
		c-0.954-0.006-1.434-0.486-1.44-1.44c-1.508,0.452-1.531-0.581-2.304-0.864C157.869,48.91,159.011,48.728,158.587,50.112z
		 M162.331,53.856c1.39,0.142,2.335-0.16,2.304-1.44c-0.96,0-1.92,0-2.88,0C161.338,53.505,162.546,52.969,162.331,53.856z
		 M175.867,78.048c-0.125,1.604-0.104,3.352-1.44,3.744c0.276,0.876-0.616,2.921,0.576,2.88c0.308-0.556,0.551-1.177,1.728-0.864
		c0.307-1.421,0.492-2.964,2.305-2.88c0.679-1.146,1.017-3.642-0.864-3.744C178.581,78.65,176.721,77.846,175.867,78.048z
		 M167.803,101.952c0,0.96,0,1.92,0,2.88c1.537,0.385,1.344-0.96,2.88-0.576c-0.217-1.031-0.884-1.613-0.576-3.168
		c-0.287,0-0.575,0-0.863,0C169.607,102.221,168.563,101.945,167.803,101.952z M134.107,103.392c0.48,0,0.96,0,1.44,0
		c-0.128-0.544,0.392-1.736-0.576-1.44C134.699,102.448,133.906,102.423,134.107,103.392z M134.107,110.016
		c0.085,1.163,2.24,0.256,2.016,1.728c0.576,0,1.152,0,1.728,0c0-0.768,0-1.536,0-2.304c-1.466,0.41-0.662-1.45-0.864-2.304
		c-0.749,0.172-1.036-0.116-0.864-0.864c-1.474-0.513-1.156,0.764-2.016,0.864c-0.385-1.537,0.961-1.343,0.576-2.88
		c-0.706,0.254-1.057,0.863-2.304,0.576c0.348,1.211-0.465,1.263-0.576,2.016c0.744,0.792,0.815,2.256,2.016,2.592
		c0.818,0.05-0.348-1.884,0.864-1.44C135.03,109.211,134.218,109.263,134.107,110.016z M136.123,105.408
		c0.004,0.44,2.134,0.631,1.728-0.288C137.846,104.68,135.717,104.489,136.123,105.408z M169.243,109.152
		c-0.421,1.573,1.461,0.842,0.863,2.592c0.48,0,0.96,0,1.44,0c0-0.384,0-0.768,0-1.152c-1.987-0.125,0.165-4.389-1.44-4.896
		C170.288,107.318,170.092,108.562,169.243,109.152z M150.811,121.536c-0.384,0-0.768,0-1.151,0c0.189-2.398-1.774-2.642-2.305-4.32
		c-0.114-0.69,1.312,0.16,0.864-0.864c0-0.288,0-0.576,0-0.864c-0.418-0.158-1.488,0.336-1.439-0.288
		c0.125-0.643,0.509-1.027,1.151-1.152c0.279,0.488,0.796,0.74,1.729,0.576c-0.255-0.706-0.863-1.057-0.576-2.304
		c-1.056,0-2.112,0-3.168,0c0.348-1.211-0.465-1.263-0.576-2.016c-0.768,0-1.536,0-2.304,0c-0.175-0.594,0.465-2.001-0.576-1.728
		c-0.618,0.438-0.52,1.593-1.44,1.728c-0.098-0.766-1.069-0.658-1.151-1.44c0.048-0.336,0.455-0.313,0.863-0.288
		c0-0.48,0-0.96,0-1.44c-1.459,0.413-0.834,1.134-2.016,0c-0.288,0-0.576,0-0.864,0c0,0.48,0,0.96,0,1.44
		c0.544,0.128,1.736-0.392,1.44,0.576c0.114,0.69-1.312-0.16-0.864,0.864c0,0.288,0,0.576,0,0.864
		c0.761,0.007,1.805-0.269,1.44,0.864c0.688,0.175,2.089-0.361,2.304,0.288c0.209,1.519-0.623,4.079,0.864,4.32
		c-0.158,0.418,0.336,1.489-0.288,1.44c-0.384,0-0.769,0-1.152,0c-0.851-1.645-2.234-2.757-3.744-3.744
		c-0.385,1.537,0.96,1.343,0.576,2.88c1.292,0.724,2.657,1.375,2.304,3.744c0.749-0.172,1.037,0.115,0.864,0.864
		c0.419,0.158,1.488-0.336,1.44,0.288c0.057,1.479,0.338,2.734,1.151,3.456c0.515-0.638,0.95-1.354,1.729-1.728
		c0.51,2.178,0.425,4.951,2.016,6.048c0.818,0.05-0.348-1.884,0.864-1.44c0.703,1.889,3.297,1.888,3.168,4.608
		c1.152,0,1.577,0.727,1.44,2.016c0.768,0,1.535,0,2.304,0c0.157-0.418-0.337-1.489,0.288-1.44c1.92,0,3.84,0,5.76,0
		c-0.768-1.345-2.34-1.884-3.744-2.592c0.489-0.279,0.74-0.796,0.576-1.728c-0.875-0.18-2.48,0.369-2.88-0.288
		c-0.424-1.096,1.287-0.057,0.864-1.152c-0.891-0.166-1.013-1.099-0.864-2.304c-0.748,0.172-1.036-0.116-0.864-0.864
		c-1.734-0.089-2.463-1.185-3.744-1.728c0-0.384,0-0.768,0-1.152c0.288,0,0.576,0,0.864,0c-0.174-0.594,0.465-2.001-0.576-1.728
		C150.571,119.761,151.626,121.583,150.811,121.536z M136.123,114.624c0-0.768,0-1.536,0-2.304
		C135.206,112.003,135.206,114.941,136.123,114.624z M168.379,116.064c-0.276-0.876,0.617-2.92-0.576-2.88
		C168.079,114.06,167.187,116.105,168.379,116.064z M156.571,116.064c0.479,0,0.96,0,1.439,0c0-0.672,0-1.344,0-2.016
		c-0.479,0-0.96,0-1.439,0C156.571,114.72,156.571,115.392,156.571,116.064z M125.755,116.928c0.544-0.128,1.736,0.392,1.44-0.576
		c-1.149,0.093-0.421-1.691-1.44-1.728C125.755,115.392,125.755,116.16,125.755,116.928z M159.163,116.928
		c0.624,0.048,0.13-1.021,0.288-1.44c-0.288,0-0.576,0-0.864,0C158.715,116.032,158.195,117.224,159.163,116.928z M134.683,123.552
		c0.149-1.589-1.008-1.872-0.576-3.744c-1.648,0.208-1.349-1.531-2.304-2.016c0,0.96,0,1.92,0,2.88c0.48,0,0.96,0,1.44,0
		C133.205,122.15,134.072,122.723,134.683,123.552z M159.163,119.808c0.624,0.048,0.13-1.021,0.288-1.44c-0.288,0-0.576,0-0.864,0
		C158.715,118.913,158.195,120.104,159.163,119.808z M138.427,125.28c1.089-0.417,0.553,0.791,1.44,0.576c0-1.44,0-2.88,0-4.32
		c-0.48,0-0.96,0-1.44,0C140.192,122.735,137.836,122.908,138.427,125.28z M142.171,127.296c-0.311-1.129,0.667-3.546-0.576-3.744
		C141.906,124.681,140.928,127.099,142.171,127.296z M135.547,128.16c1.048,0.28,0.133-1.403,1.44-0.864c0-0.48,0-0.96,0-1.44
		c-1.089,0.417-0.553-0.791-1.44-0.576C135.547,126.24,135.547,127.2,135.547,128.16z M140.443,128.16
		c0.624,0.048,0.13-1.021,0.287-1.44c-0.287,0-0.575,0-0.863,0C139.994,127.265,139.476,128.456,140.443,128.16z M145.915,129.024
		c0-0.768,0-1.536,0-2.304C144.998,126.403,144.998,129.341,145.915,129.024z M129.211,129.6c0.625,0.048,0.13-1.021,0.288-1.44
		c-0.288,0-0.576,0-0.864,0C128.763,128.705,128.243,129.896,129.211,129.6z M133.243,131.904c0.48,0,0.96,0,1.44,0
		c0.032-1.28-0.271-2.226-1.44-2.304C133.243,130.368,133.243,131.136,133.243,131.904z M140.73,134.208c0.48,0,0.96,0,1.44,0
		c-0.014-1.714-0.056-3.4-1.44-3.744C140.73,131.712,140.73,132.96,140.73,134.208z M148.219,132.768c0.48,0,0.96,0,1.44,0
		c0-0.768,0-1.536,0-2.304c-0.48,0-0.96,0-1.44,0C148.219,131.232,148.219,132,148.219,132.768z M115.675,133.344
		c0.625,0.048,0.13-1.021,0.288-1.44c-0.288,0-0.576,0-0.864,0C115.227,132.448,114.707,133.64,115.675,133.344z M116.827,136.512
		c0.479,0,0.96,0,1.44,0c0.127-1.408,2.155-0.917,2.304-2.304c-1.069-0.466-2.062-1.009-2.304-2.304c-0.48,0-0.96,0-1.44,0
		C116.827,133.44,116.827,134.976,116.827,136.512z M143.035,134.208c0.723-0.237,2.479,0.56,2.304-0.576
		c-0.556-0.308-1.177-0.551-0.864-1.728c-0.479,0-0.96,0-1.439,0C143.035,132.672,143.035,133.44,143.035,134.208z M128.059,135.648
		c0.623-0.337,1.103-0.817,1.44-1.44c-0.768,0-1.536,0-2.304,0C126.915,135.256,128.598,134.341,128.059,135.648z M106.171,137.952
		c0.128,0.544-0.392,1.736,0.576,1.44c0.476-0.004,0.161-0.799,0.576-0.864c0.384,0,0.768,0,1.152,0c0-0.48,0-0.96,0-1.44
		c-0.48,0-0.96,0-1.44,0C107.207,137.836,106.919,138.125,106.171,137.952z M103.291,143.136c0.885,0.44,0.885-1.881,0-1.44
		C103.291,142.176,103.291,142.656,103.291,143.136z M136.987,142.848c-0.048,0.625,1.021,0.13,1.44,0.288
		c-0.127-0.544,0.392-1.736-0.576-1.44C138.274,142.792,136.563,141.753,136.987,142.848z M100.987,148.32
		c1.153,0,1.578-0.727,1.44-2.016c-0.48,0-0.96,0-1.44,0C100.987,146.976,100.987,147.648,100.987,148.32z M150.234,147.744
		c0.625,0.048,0.131-1.021,0.288-1.44c-0.479,0-0.96,0-1.439,0C149.403,146.848,149.487,147.627,150.234,147.744z M144.475,150.624
		c0-0.48,0-0.96,0-1.44c-1.485,0.045-0.869-2.011-2.88-1.44C141.596,149.663,142.557,150.623,144.475,150.624z M145.915,152.064
		c0.768,0,1.536,0,2.304,0c-0.539,1.307,1.145,0.392,0.864,1.44c-0.522,0.246-0.794,0.742-1.44,0.864
		c-1.14,0.372-0.588-0.948-1.728-0.576c0.886,0.842,1.075,2.381,3.168,2.016c0.506-1.973,0.506-2.347,0-4.32
		c-0.507-0.166-1.692,0.348-1.729-0.288c-0.551-1.416,0.958-0.771,0.864-1.728c-0.128-0.832-2.176,0.256-2.304-0.576
		c-0.424-1.095,1.287-0.057,0.864-1.152c-0.48,0-0.96,0-1.44,0c0,0.48,0,0.96,0,1.44
		C146.531,149.144,145.639,151.188,145.915,152.064z M139.867,152.064c0.961,0.191,1.537,0.767,1.728,1.728
		c0.623-0.337,1.103-0.817,1.44-1.44c-0.593-0.463-2.016-0.096-1.44-1.728c-1.14,0.372-0.588-0.948-1.728-0.576
		C139.867,150.72,139.867,151.392,139.867,152.064z M98.683,152.928c0,0.48,0,0.96,0,1.44c1.226,0.408,2.195-2.019,0.864-2.304
		C99.719,152.812,99.431,153.101,98.683,152.928z M145.051,154.368c0.649-0.214,0.112-1.615,0.288-2.304c-0.288,0-0.576,0-0.864,0
		C144.712,152.787,143.915,154.544,145.051,154.368z"/>
	<path fill-rule="evenodd" clip-rule="evenodd" d="M125.755,20.16c0.172-0.749-0.116-1.036-0.864-0.864c0-0.48,0-0.96,0-1.44
		c0.48,0,0.96,0,1.44,0c0.066,1.662,1.994,1.462,3.744,1.44c-0.452,1.508,0.581,1.532,0.864,2.304
		C128.929,21.402,128.199,19.923,125.755,20.16z"/>
	<path fill-rule="evenodd" clip-rule="evenodd" d="M71.035,42.048c-1.101,0.626-0.664,2.792-2.304,2.88c0,0.672,0,1.344,0,2.016
		c0.697,0.359,1.001,1.11,2.304,0.864c0.235-1.771-1.495-1.577-0.864-3.744c1.653-0.597,1.031,1.081,2.304,0.864
		c0,0.768,0,1.536,0,2.304c-0.288,0-0.576,0-0.864,0c0.285,0.963-0.732,3.229,0.864,2.88c0.368,1.168-0.857,3.928,0.864,3.744
		c-0.445,4.094,0.796,6.5,0.576,10.368c0.046,0.337,0.525,0.243,0.864,0.288c0.341,1.579-0.708,4.548,0.576,5.184
		c-0.487,0.665-0.746,1.558-0.576,2.88c-1.307,0.229-1.135,1.937-1.44,3.168c-1.14-0.372-0.588,0.948-1.728,0.576
		c0.166,0.506-0.348,1.692,0.288,1.728c0.57-0.486,1.398-0.714,1.44-1.728c0.418,0.157,1.489-0.337,1.44,0.288
		c-1.124,0.604-0.886,2.569-0.864,4.32c-1.791-0.543-1.089,1.407-2.88,0.864c0-0.672,0-1.344,0-2.016
		c-1.614-0.306-0.614-3.227-2.304-3.456c-0.303-2.193-0.882-4.11-2.304-5.184c0.17-1.322-0.089-2.215-0.576-2.88
		c0.679-1.448,0.35-5.062-0.864-6.336c2.208-2.19-1.027-4.909,0-8.64c0.48,0,0.96,0,1.44,0c-0.076-1.229-0.156-2.46,0.864-2.592
		c-1.737-1.719-0.488-6.424-0.864-9.504c1.455,0.207,0.739-1.757,2.304-1.44c0.187,1.35-0.376,3.449,0.288,4.32
		c1.467-1.075,0.969-2.542,0.576-4.32C70.274,40.313,70.644,41.191,71.035,42.048z M68.443,52.416
		c0.247-1.001,1.586-0.91,1.728-2.016c-0.489-0.28-0.74-0.796-0.576-1.728c-0.576,0-1.152,0-1.728,0
		C68.178,49.801,67.2,52.219,68.443,52.416z M66.427,56.16c0-0.768,0-1.536,0-2.304C65.51,53.54,65.51,56.477,66.427,56.16z
		 M67.867,59.904c0-0.768,0-1.536,0-2.304C66.95,57.283,66.95,60.221,67.867,59.904z"/>
	<path fill-rule="evenodd" clip-rule="evenodd" d="M158.011,77.184c-0.163-1.219,0.945-1.167,1.44-1.728
		c-0.278-1.162-2.531-0.349-2.305-2.016c-1.159,0.185-3.062-0.374-3.743,0.288c1.286,0.922,2.739,1.676,3.743,2.88
		c0.216,0.887-0.992,0.351-0.575,1.44c-0.576,0-1.152,0-1.729,0c0-0.288,0-0.576,0-0.864c-0.384,0-0.768,0-1.152,0
		c-0.245,0.522-0.741,0.794-0.863,1.44c-0.769,0-1.536,0-2.305,0c0.841-1.019,0.276-1.088,0-2.304
		c-0.723-0.237-2.479,0.56-2.304-0.576c0.875-0.181,2.48,0.369,2.88-0.288c-1.406-0.673-4.617-1.415-5.76-0.576
		c-0.799-1.217-4.421,0.389-4.608-1.44c-0.688,0.176-2.089-0.361-2.304,0.288c0.002,1.438,2.429,0.452,2.304,2.016
		c2.188-0.171,3.938,0.095,5.185,0.864c-0.91,1.298-4.19,0.225-6.048,0.576c-0.717-1.875-5.077-0.107-5.472-2.304
		c-0.486,0.666-0.894,1.41-2.016,1.44c0,0.672,0,1.344,0,2.016c0.638,0.515,1.354,0.951,1.728,1.728
		c-2.129,0.497-1.991-1.272-3.168-1.728c0-0.192,0-0.384,0-0.576c-0.423-1.096,1.287-0.057,0.864-1.152
		c-0.458-0.346-2.153,0.522-2.304,1.44c-1.056,0-2.112,0-3.168,0c-0.188-0.869-0.37-1.743-1.44-1.728
		c0.03-0.99,0.149-2.069-0.576-2.304c0.734-0.418,0.073-2.231,1.44-2.016c-0.176-1.456,0.571-3.834-0.864-4.032
		c1.254-0.667,0.723-3.118,2.304-3.456c0-1.248,0-2.496,0-3.744c1.734-0.858,2.438-2.746,4.032-3.744
		c2.068,1.024,4.743-1.585,6.048-3.168c0.192,0,0.384,0,0.576,0c0.208,0.775,3.739,1.776,3.744,0c0.96,0,1.92,0,2.88,0
		c0,0.288,0,0.576,0,0.864c1.3-0.044,3.049,0.361,3.168-0.864c0.604,1.124,2.57,0.887,4.32,0.864c0,0.48,0,0.96,0,1.44
		c1.699,0.316,2.858,1.174,3.744,2.304c0.723,0.237,2.479-0.56,2.304,0.576c0.743-0.755,2.479-0.813,2.88,0.288
		c0.216,0.887-0.992,0.351-0.576,1.44c1.273,1.126,1.359,3.441,2.881,4.32c0.316,1.026-0.781,3.469,0.863,3.168
		c0.81,3.017-1.415,5.64,0,6.624c-0.672,0-1.344,0-2.016,0c-0.249,0.519-0.633,0.903-1.152,1.152
		c0.116,0.556,1.319,0.025,0.864,1.152c0.672,0,1.344,0,2.016,0c0.818,0.05-0.348-1.884,0.864-1.44
		c0.425,1.384-0.718,1.202-0.576,2.304C161.556,78.248,160.956,76.543,158.011,77.184z M155.707,71.136c0.479,0,0.96,0,1.439,0
		c-0.006-0.954-0.485-1.434-1.439-1.44C155.707,70.176,155.707,70.656,155.707,71.136z M151.963,76.32c0.48,0,0.96,0,1.44,0
		c-0.403-0.558-0.35-1.571-1.44-1.44C151.963,75.36,151.963,75.84,151.963,76.32z"/>
	<path fill-rule="evenodd" clip-rule="evenodd" d="M112.219,74.88c-1.737-0.105-0.92,2.343-2.304,2.592
		c0.1,0.86,1.377,0.542,0.864,2.016c-2.88,0.818-4.728-0.188-6.912,0.576c0-0.672,0-1.344,0-2.016
		c1.256-0.472,2.2-1.256,3.168-2.016c-0.942-0.923-2.326,0.156-3.168,0.288c0.288,1.247-0.322,1.598-0.576,2.304
		c-1.384,0.424-1.202-0.718-2.304-0.576c0-0.576,0-1.152,0-1.728c-2.155,0.427-2.767-0.689-4.608-0.576
		c0.424-1.384-0.718-1.202-0.576-2.304c-0.48,0-0.96,0-1.44,0c-0.062,1.282-2.39,0.298-1.728,2.304c-1.152,0-2.304,0-3.456,0
		c-0.649,0.214-0.112,1.615-0.288,2.304c-0.479,0-0.96,0-1.44,0c-0.083-0.78,0.405-2.133-0.864-1.728
		c-0.378-2.586,0.366-4.05,0.864-5.76c-0.306-0.558-1.659-0.069-1.728-0.864c-1.302-0.054-0.909,1.587-1.44,2.304
		c-0.782-0.082-0.674-1.054-1.44-1.152c1.897-1.282-0.081-2.416,0-4.32c0.576,0,1.152,0,1.728,0c0-0.384,0-0.768,0-1.152
		c-0.508-0.452-1.22-0.7-1.728-1.152c-0.448-1.024,0.979-0.174,0.864-0.864c0.44-1.305-1.881,0.152-1.44-1.152
		c0.864,0,1.728,0,2.592,0c0.686-1.714,1.62-3.18,2.592-4.608c4.721-0.56,7.958,0.206,13.536,0c0,0.48,0,0.96,0,1.44
		c1.706-0.335,5.68-1.603,6.048,0.864c0.96,0,1.92,0,2.88,0c0.164,0.932-0.087,1.449-0.576,1.728
		c1.199,1.489,3.305,2.071,3.744,4.32c0.876,0.276,2.921-0.617,2.88,0.576c-0.96,0-1.92,0-2.88,0
		c0.292,1.436,0.092,3.364,1.44,3.744c-0.287,1.248,0.322,1.599,0.576,2.304c-1.023-0.448-0.174,0.978-0.864,0.864
		c-0.192,0-0.384,0-0.576,0c-0.614,0.135-0.548-0.411-0.576-0.864c-0.48,0-0.96,0-1.44,0c-0.246,0.522-0.742,0.794-0.864,1.44
		c1.271,0.649,2.396,1.148,3.744,0.288c0.887-0.215,0.351,0.993,1.44,0.576c0,0.48,0,0.96,0,1.44
		C114.212,76.342,112.285,76.542,112.219,74.88z M96.955,68.256c-0.96,0-1.92,0-2.88,0c0-0.288,0-0.576,0-0.864
		c-0.672,0-1.344,0-2.016,0c-0.284,1.732-2.739,1.293-2.304,3.744c0.96,0,1.92,0,2.88,0c0.256-1.28,1.738-1.334,3.168-1.44
		c-0.041-1.289,1.558-0.938,2.304-1.44c-0.174-0.594,0.465-2.001-0.576-1.728C96.716,66.481,97.77,68.303,96.955,68.256z
		 M97.243,71.712c-0.048,0.625,1.022,0.131,1.44,0.288c-0.174-0.594,0.464-2-0.576-1.728C98.646,71.579,96.963,70.664,97.243,71.712
		z M101.851,74.304c0,0.48,0,0.96,0,1.44c0.672,0,1.344,0,2.016,0c-0.172-0.749,0.116-1.036,0.864-0.864
		c-0.337-0.623-0.817-1.103-1.44-1.44C103.655,74.573,102.611,74.297,101.851,74.304z"/>
	<path fill-rule="evenodd" clip-rule="evenodd" d="M134.683,80.064c1.071-0.014,1.253,0.86,1.44,1.728
		C135.553,81.307,134.725,81.078,134.683,80.064z"/>
	<path fill-rule="evenodd" clip-rule="evenodd" d="M128.059,83.808c-0.768,0-1.536,0-2.304,0c0.513-1.473-0.764-1.156-0.864-2.016
		c1.056,0,2.112,0,3.168,0c-0.426,1.866,0.906,1.974,0.576,3.744C127.594,85.809,128.233,84.402,128.059,83.808z"/>
	<path fill-rule="evenodd" clip-rule="evenodd" d="M73.915,86.112c0.202,0.854-0.602,2.714,0.864,2.304
		c-0.175,0.689,0.362,2.09-0.288,2.304C73.937,89.857,72.576,86.975,73.915,86.112z"/>
	<path fill-rule="evenodd" clip-rule="evenodd" d="M152.827,107.136c-0.934,1.311-0.934,1.857,0,3.168
		c-1.353,0.489-0.376-1.353-1.729-0.864c0-0.48,0-0.96,0-1.44C152.451,108.489,151.475,106.647,152.827,107.136z"/>
	<path fill-rule="evenodd" clip-rule="evenodd" d="M94.075,119.232c0,0.48,0,0.96,0,1.44c-0.48,0-0.96,0-1.44,0
		c0.424,1.384-0.718,1.202-0.576,2.304c-0.689-0.175-2.09,0.362-2.304-0.288C91.619,121.96,92.36,120.11,94.075,119.232z"/>
	<path fill-rule="evenodd" clip-rule="evenodd" d="M82.843,125.856c-0.413,0.868-2.9,1.505-3.168,0
		c-1.023-0.448-0.174,0.979-0.864,0.864c-0.384,0-0.768,0-1.152,0c0.147-3.032-1.186-4.716,0.288-6.912
		c2.638,0.94-0.586,4.328,1.44,5.472c0.648-0.6,1.32-1.176,2.88-0.864C81.85,125.505,83.058,124.969,82.843,125.856
		c1.675,0.427,1.604-0.893,3.168-0.576c0.28,1.048-1.403,0.133-0.864,1.44C84.293,126.518,82.433,127.322,82.843,125.856z"/>
	<path fill-rule="evenodd" clip-rule="evenodd" d="M81.691,120.672c0.968-0.296,0.448,0.896,0.576,1.44
		c-0.749-0.172-1.037,0.116-0.864,0.864c-0.418-0.157-1.488,0.336-1.44-0.288C80.43,121.907,81.769,121.998,81.691,120.672z"/>
	<path fill-rule="evenodd" clip-rule="evenodd" d="M97.243,129.6c0-0.768,0-1.536,0-2.304c1.153,0.001,1.578-0.726,1.44-2.016
		c0.906-0.33,0.7,0.452,1.152,0.576c0.741-0.306,0.156-1.659-0.288-1.728c-0.05-0.722,0.645-0.699,0.864-1.152
		c0.887-0.215,0.351,0.993,1.44,0.576c0,0.768,0,1.536,0,2.304c-0.749-0.172-1.037,0.116-0.864,0.864
		C98.592,126.533,99.468,129.618,97.243,129.6c0,0.48,0,0.96,0,1.44c-1.307-0.539-0.392,1.144-1.44,0.864
		C95.771,130.625,96.073,129.679,97.243,129.6z"/>
	<path fill-rule="evenodd" clip-rule="evenodd" d="M150.522,126.72c0-0.288,0-0.576,0-0.864c0.656,0.88,2.104,0.969,2.305,2.304
		C151.562,128.178,151.726,126.766,150.522,126.72z"/>
	<path fill-rule="evenodd" clip-rule="evenodd" d="M92.635,137.952c0.215,0.887-0.993,0.351-0.576,1.44
		c-0.506-0.166-1.692,0.348-1.728-0.288C90.46,138.082,92.246,138.715,92.635,137.952z"/>
	<path fill-rule="evenodd" clip-rule="evenodd" d="M123.451,143.712c0.135-0.614-0.411-0.548-0.864-0.576c0-0.768,0-1.536,0-2.304
		c0.576,0,1.152,0,1.728,0c1.554,2.572-0.209,5.362-2.304,6.048C122.934,146.267,122.071,143.869,123.451,143.712z"/>
	<path fill-rule="evenodd" clip-rule="evenodd" d="M201.499,173.088c0.28-1.048-1.403-0.133-0.864-1.44c0.48,0,0.96,0,1.44,0
		c0.671,1.441,2.08,2.144,3.168,3.168c0.093,0.957-1.416,0.312-0.864,1.728c1.121,1.102,1.773-0.708,3.168-0.288
		c0.528,1.104,1.1,2.164,2.88,2.016c0.099,1.438,1.866,1.207,1.44,3.168c-1.248-2.112-3.919-2.801-5.473-4.608
		c-0.648,0.6,0.163,2.659-1.151,2.592c2.525,1.89,5.081,3.75,6.624,6.624c-1.535,0.382-1.891-0.414-2.592-0.864
		c-0.488,0.789,1.137,1.925,2.016,2.304c-0.207,2.895,1.454,3.922,3.744,4.32c0.36,0.982,0.476,2.212,1.439,2.592
		c0.296,0.968-0.896,0.448-1.439,0.576c0.172-0.749-0.116-1.037-0.864-0.864c0.424-1.385-0.718-1.202-0.576-2.304
		c-0.576,0-1.151,0-1.728,0c-0.141-1.492-1.986-1.278-2.017-2.881c-0.575,0-1.151,0-1.728,0c0.279-2.295-1.795-2.237-2.304-3.744
		c-1.425,0.379-0.251,2.6,0.287,2.88c-1.131,0.268-0.727-1.001-2.016-0.576c-0.391,0.089-0.239,0.721-0.288,1.152
		c-0.049,0.624,1.021,0.13,1.44,0.287c-0.176,0.689,0.361,2.09-0.288,2.305c-1.613-1.268-2.651-3.109-4.896-3.744
		c0.379,0.677,0.803,1.309,0.576,2.592c-0.049,0.625,1.021,0.131,1.44,0.288c0,0.479,0,0.96,0,1.44
		c-1.104-0.528-2.164-1.101-2.017-2.881c-1.272-0.216-0.65,1.462-2.304,0.864c0,0.672,0,1.344,0,2.017
		c1.384,0.424,1.202-0.719,2.304-0.576c0,0.768,0,1.536,0,2.304c-1.743,1.169-3.896,0.078-3.744-2.304c-0.575,0-1.151,0-1.728,0
		c0,0.768,0,1.536,0,2.304c-1.092-1.788-0.469-5.292-2.592-6.048c-0.645,0.124-0.117,1.419-0.288,2.016
		c0.521,0.246,0.794,0.742,1.439,0.864c0,1.152,0,2.304,0,3.456c0.915,0.045,0.728,1.193,1.152,1.728
		c0.825-0.039-0.249-1.977,0.576-2.016c1.286,0.058-0.247,2.936,2.016,2.016c0,0.769,0,1.536,0,2.305
		c-0.803-0.541-0.925-1.763-1.728-2.305c-0.921,0.136-0.822,1.29-1.44,1.729c-1.136,0.176-0.339-1.581-0.576-2.304
		c-1.44,0.095,0.12,3.191-0.863,3.743c-1.02-0.036-0.291-1.82-1.44-1.728c0.451-0.701,1.247-1.058,0.864-2.592
		c-0.557-0.308-1.178-0.551-0.864-1.729c-1.048-0.28-0.133,1.403-1.439,0.864c-0.534,1.781,0.763,1.733,0.863,2.88
		c-1.463-0.072-1.007-2.064-3.168-1.439c0.031-1.28-0.271-2.226-1.439-2.305c0.164-0.932-0.088-1.448-0.576-1.728
		c0.395-0.485,1.067-2.175,0.288-2.88c-0.282,2.023-1.617,2.991-1.152,5.76c2.349,0.628,3.132,2.82,4.608,4.32
		c0,0.384,0,0.768,0,1.151c-3.466,0.202-2.423-4.104-5.473-4.319c0-0.48,0-0.961,0-1.44c-0.887-0.216-0.351,0.993-1.439,0.576
		c0-0.672,0-1.344,0-2.017c-0.124-0.644-1.42-0.116-2.017-0.287c-0.24,1.007-0.774,1.721-0.863,2.88
		c0.414,0.642,1.033,1.078,2.304,0.863c0,0.769,0,1.536,0,2.305c-1.155-0.341-1.626-0.897-2.304,0.288
		c0.549,1.082,0.833,2.431,2.016,2.88c0.659-0.493,0.105-2.198,0.288-3.168c0.479,0,0.96,0,1.44,0c0,0.768,0,1.536,0,2.304
		c-1.597-0.348-0.579,1.917-0.864,2.88c-0.932,0.356-0.22-0.932-1.152-0.576c-0.478,0.591-0.478,3.153,0,3.744
		c1.136,0.176,0.339-1.581,0.576-2.304c0.479,0,0.96,0,1.44,0c0.124-1.412,0.613-2.459,0.863-3.744
		c1.086,0.065,0.097,2.207,2.017,1.44c-0.598,1.653,1.08,1.031,0.863,2.304c-1.463-0.073-1.007-2.065-3.168-1.44
		c0,0.769,0,1.536,0,2.305c-0.479,0-0.96,0-1.439,0c0.249,1.411-1.367,2.458-0.288,3.743c0.649-0.214,0.112-1.615,0.288-2.304
		c1.102-0.142,0.92,1,2.304,0.576c0,0.576,0,1.152,0,1.728c-1.152,0-1.577,0.727-1.439,2.017c-0.906,0.33-0.7-0.452-1.152-0.576
		c-0.426,0.535-0.237,1.683-1.152,1.728c0.948,1.047,2.149,3.163,0.576,4.32c-0.945-2.223-2.177-4.159-3.456-6.048
		c0.48,0,0.96,0,1.44,0c0-0.672,0-1.344,0-2.016c-1.888-1.953-0.382-7.299-0.864-10.656c-0.61,0.829-1.479,1.401-1.44,2.88
		c-0.479,0-0.96,0-1.439,0c-0.501,2.067-2.324,3.303-0.864,5.76c1.515,0.31,1.278,2.37,2.304,3.168c-0.479,0-0.96,0-1.439,0
		c0-0.479,0-0.96,0-1.439c-0.384,0-0.769,0-1.152,0c-0.465,0.766-0.609,3.671,0.288,4.031c-0.669,0.483-0.375,1.93-0.864,2.593
		c-0.517-1.884-1.597-3.203-2.016-5.185c-0.672,0-1.344,0-2.016,0c-0.551,1.369-1.423,2.418-1.729,4.032
		c1.472,1.024-0.503,5.495,1.44,6.048c0,0.384,0,0.769,0,1.152c-0.48,0-0.96,0-1.44,0c0.642-2.945-1.063-3.545-0.864-6.048
		c-1.758,0.065-1.429,2.219-1.439,4.031c-1.378-0.418-0.716,1.205-0.864,2.017c-1.653-0.598-1.031,1.08-2.304,0.864
		c0,0.768,0,1.535,0,2.304c-1.156,0.38-2.253,0.819-2.304,2.304c-1.041,0.272-0.402-1.134-0.576-1.728
		c1.686,0.245,0.52-2.36,0.863-3.456c-0.9-0.636-1.993-1.078-2.304-2.305c-1.384-0.424-1.202,0.719-2.304,0.576
		c0-0.479,0-0.96,0-1.439c1.454,0.206,0.739-1.757,2.304-1.44c0-0.768,0-1.536,0-2.304c0.769,0,1.536,0,2.304,0
		c0.455-1.799-1.471-1.217-0.863-3.168c-1.178-0.313-1.421,0.308-1.729,0.864c-1.185-0.071-0.635-2.774,0.288-2.593
		c-0.795-1.052-1.414,0.483-2.304,0.288c0,0.384,0,0.769,0,1.152c1.967,0.685,1.363,3.063,0.864,4.896c-0.769,0-1.536,0-2.305,0
		c0.021-1.034-0.233-2.345,0.576-2.592c-0.32-0.301-2.109,0.373-2.304,1.152c-0.623-0.338-1.103-0.817-1.44-1.44
		c0.576,0,1.152,0,1.729,0c0-1.056,0-2.111,0-3.168c-1.353-0.488-0.376,1.354-1.729,0.864c0,0.768,0,1.536,0,2.304
		c-0.479,0-0.96,0-1.439,0c0,0.385,0,0.769,0,1.152c1.882,0.422,3.971,0.637,3.744,3.168c-0.48,0-0.96,0-1.44,0
		c0,0.576,0,1.152,0,1.728c-1.564-0.316-0.85,1.647-2.304,1.44c0,0.768,0,1.536,0,2.304c-0.782-0.082-0.675-1.054-1.44-1.151
		c0.633-0.903,1.37-1.703,1.44-3.168c0.048-0.625-1.021-0.131-1.44-0.288c0-0.769,0-1.536,0-2.305
		c-1.653-0.597-1.031,1.081-2.304,0.864c0,0.769,0,1.536,0,2.304c-1.096,0.424-0.057-1.287-1.152-0.863
		c-0.767,0.785,0.851,1.631,2.017,1.439c0,0.288,0,0.576,0,0.864c-1.076,0.707-1.076,2.173,0,2.88
		c-1.385,0.425-1.202-0.718-2.305-0.576c0-0.96,0-1.92,0-2.88c-0.696-0.359-1.001-1.11-2.304-0.864
		c0.092-0.956-0.64-1.088-0.864-1.728c-1.204,0.235-1.095,1.785-2.016,2.304c-0.392-1.735,0.568-2.119,0.576-3.456
		c-0.09-0.391-0.722-0.238-1.152-0.288c-0.507,0.838-0.904,1.784-2.592,1.44c0.6-0.647,1.176-1.319,0.864-2.88
		c1.455,0.206,0.739-1.757,2.304-1.44c-0.013-1.645,0.444-2.819,1.439-3.456c-2.023-0.674-3.459,1.721-4.032,3.456
		c-1.041,0.273-0.401-1.134-0.576-1.728c1.132,0.364,0.856-0.68,0.864-1.44c1.919-0.001,2.878-0.961,2.88-2.88
		c0.576,0,1.151,0,1.728,0c0-0.96,0-1.92,0-2.88c0.049-0.625-1.021-0.131-1.439-0.288c-0.471,1.065-0.301,2.771-2.304,2.304
		c0,0.769,0,1.536,0,2.305c-1.391,0.817-2.91,1.507-3.744,2.88c-0.425-1.865,0.906-1.975,0.576-3.744
		c2.903-0.932-0.068-4.648,1.44-6.336c-0.089-0.391-0.721-0.239-1.152-0.288c-0.456,2.904-3.801,2.919-4.032,6.048
		c-0.48,0-0.96,0-1.44,0c1.878,2.455-1.244,3.857-1.44,6.048c-2.429-0.221-3.757,0.659-3.744,2.88
		c-1.437,0.1-1.207,1.866-3.168,1.44c0-0.48,0-0.96,0-1.44c1.169-0.078,1.471-1.024,1.44-2.304c1.14,0.372,0.588-0.948,1.728-0.576
		c-0.427-1.675,0.893-1.604,0.576-3.168c2.694-2.011,4.658-4.75,5.184-8.928c2.556,0.636,1.466-2.374,3.168-2.592
		c-0.089-0.391-0.721-0.239-1.152-0.288c-0.698,2.565-3.78,2.748-4.032,5.76c-1.704,0.121-1.404,2.244-3.168,2.304
		c0.258,2.274-0.599,3.434-2.304,3.744c0.424-1.384-0.718-1.202-0.576-2.304c-3.428,0.452-3.764-2.188-6.912-2.016
		c0-0.288,0-0.576,0-0.864c-0.864,0-1.728,0-2.592,0c-0.671,1.441-2.685,1.538-2.592,3.744c-4.239,0.273-6.944,2.08-8.928,4.607
		c-2.99,0.178-4.885,1.451-7.488,2.017c0,0.575,0,1.151,0,1.728c-2.339-0.034-2.689,1.919-4.608,2.304
		c0.464,1.744-0.997,5.413,0.864,5.761c-0.185,1.159,0.375,3.062-0.288,3.744c-1.229-0.115-0.274-2.414-0.576-3.456
		c0.049-0.625-1.021-0.131-1.44-0.288c-0.285-0.963,0.732-3.229-0.864-2.88c0.438-4.759-0.73-7.91-0.576-12.385
		c-0.706-0.253-0.944-0.976-1.44-1.439c-0.215-0.888,0.993-0.352,0.576-1.44c-0.954-2.48,0.226-4.541-0.576-7.775
		c-0.046-0.338-0.525-0.243-0.864-0.288c0.202-0.854-0.602-2.714,0.864-2.305c0-0.384,0-0.768,0-1.151
		c-1.852,0.16-3.303-2.155-1.44-3.168c0.932-0.356,0.22,0.932,1.152,0.576c0.48-3.554,0.48-9.119,0-12.672
		c-1.505,1.279,0.168,5.736-0.864,7.488c-1.243-0.197-0.265-2.615-0.576-3.744c-1.086,0.066-0.097,2.208-2.016,1.44
		c0.182,0.969-0.371,2.675,0.288,3.168c0.832-0.128-0.256-2.176,0.576-2.304c1.599,1.21-0.197,3.768-0.864,4.608
		c0-0.768,0-1.536,0-2.304c-1.344-0.096-1.349,1.147-2.304,1.439c0.849-1.358,0.531-3.884,0.576-6.048
		c1.596,0.349,0.579-1.917,0.864-2.88c0.48,0,0.96,0,1.44,0c0-0.768,0-1.536,0-2.304c1.133,0.364,0.857-0.68,0.864-1.44
		c1.212-0.444,0.045,1.49,0.864,1.44c1.212,0.444,0.046-1.49,0.864-1.44c1.212-0.444,0.045,1.49,0.864,1.44
		c0.741-0.306,0.156-1.659-0.288-1.728c0.402-0.558,0.349-1.571,1.44-1.44c-0.339-1.972,1-2.264,0.576-4.32
		c1.111-0.521,1.728-1.536,1.728-3.168c1.236,0.276,1.716-0.204,1.44-1.44c1.791-0.542,1.089,1.407,2.88,0.864
		c0,0.672,0,1.344,0,2.016c0.215,0.65,1.616,0.113,2.304,0.288c-0.315,0.363-1.909,2.052,0,2.016c0,0.768,0,1.536,0,2.304
		c-0.288,0-0.576,0-0.864,0c0,0.96,0,1.92,0,2.88c1.176,0.936,1.269,2.956,4.032,2.304c-0.142,1.39,0.161,2.335,1.44,2.304
		c-0.21,2.418,1.656,2.76,2.88,3.744c-0.516,2.232-1.127,4.274,2.304,3.744c0,1.056,0,2.112,0,3.168
		c-1.127,0.455-0.596-0.748-1.152-0.864c-1.088,1.014,0.788,1.499,0.288,2.88c0.444,0.708,1.861,0.443,1.728,1.729
		c1.75-0.022,3.678-0.223,3.744,1.439c0.216-0.585,2.941-1.844,2.88,0c0.384,0,0.768,0,1.152,0c0.083-1.069,1.026-1.278,1.152-2.304
		c1.048-0.28,0.133,1.402,1.44,0.864c0.131-1.092-0.882-1.038-1.44-1.44c-0.435-1.587,0.774-1.529,0.576-2.88
		c-0.089-0.391-0.721-0.239-1.152-0.288c-0.76,0.968-1.061,2.396-2.016,3.168c-1.213-0.035-0.286-2.21-0.576-3.168
		c-0.384,0-0.768,0-1.152,0c-0.644,0.509-0.746,1.559-1.152,2.304c-1.136,0.176-0.339-1.581-0.576-2.304
		c-1.084,0.355-1.745,1.136-2.88,1.44c0.908-0.918,0.872-3.787-0.864-3.745c0-0.672,0-1.344,0-2.016
		c2.119-0.391,2.489,0.967,4.608,0.576c0,0.768,0,1.536,0,2.304c1.136,0.176,0.339-1.581,0.576-2.304c0.768,0,1.536,0,2.304,0
		c-1.133-0.402-0.507-2.564-1.44-3.168c0.658-0.686,0.648-2.04,0.576-3.456c1.089-0.417,0.553,0.792,1.44,0.576
		c0.644-0.124,0.117-1.419,0.288-2.016c-0.047-0.337-0.525-0.243-0.864-0.288c-0.148-1.205-0.026-2.138,0.864-2.304
		c-1.315-0.701-0.768-3.265-0.864-5.184c1.089,0.417,0.553-0.792,1.44-0.576c-0.812,4.624,0.115,5.856,0,10.944
		c-0.048,0.625,1.021,0.13,1.44,0.288c0,0.48,0,0.96,0,1.44c-0.825-0.23-1.335-0.776-1.728-1.44
		c-0.556,0.117-0.025,1.319-1.152,0.864c0,0.576,0,1.152,0,1.728c1.021,0.132,0.94,1.363,0.864,2.592c0.96,0,1.92,0,2.88,0
		c2.046,3.275,8.66,0.766,9.792-1.44c1.152,0,2.304,0,3.456,0c0.189-1.154,1.686-1.002,1.728-2.304
		c1.811-0.205,3.981-0.05,4.608-1.44c2.107,0.944,1.932-0.983,2.88-1.44c0.503-0.242,1.835,0.521,1.44-0.864
		c0.854-0.202,2.714,0.602,2.304-0.864c4.813-0.274,6.833-3.343,10.944-4.32c0.624,0.048,0.13-1.021,0.288-1.44
		c2.541-0.051,2.575-2.608,4.607-3.168c0.908-4.276,5.756-4.612,6.624-8.928c1.737-1.047,3.237-2.33,3.744-4.608
		c0.48,0,0.96,0,1.44,0c1.055-1.662,1.437-6.972,0.287-8.928c0.674-0.683,0.404-3.318-0.863-3.744
		c0.175-0.688-0.362-2.09,0.288-2.304c1.785,0.903,3.027,2.348,5.76,2.304c1.246,3.649,3.956,5.836,4.32,10.368
		c0.046,0.338,0.524,0.243,0.863,0.288c0,0.576,0,1.152,0,1.728c1.913,1.159,2.242,3.903,5.185,4.032c0,0.288,0,0.576,0,0.864
		c0.768,0,1.536,0,2.304,0c0.434,1.774,2.548,1.868,2.88,3.744c0.576,0,1.152,0,1.729,0c1.991,2.521,3.663,5.36,7.487,6.048
		c-0.1,0.86-1.377,0.543-0.863,2.016C199.99,172.485,200.608,172.922,201.499,173.088z M163.195,165.6c0,0.768,0,1.536,0,2.304
		c1.615-0.655,0.155,1.764,1.439,1.44c-0.526-2.333,0.356-3.064-0.576-4.32C164.096,165.541,163.772,165.698,163.195,165.6z
		 M159.451,171.648c0.127,0.544-0.392,1.736,0.576,1.44c0.221-0.843,1.799-3.048,0.287-3.744
		C160.112,170.198,160.917,172.058,159.451,171.648z M200.635,176.832c-0.404-1.035-1.153-1.726-2.016-2.304
		c-0.637,0.036-0.122,1.222-0.288,1.728C199.578,175.969,199.929,176.578,200.635,176.832z M196.027,178.272
		c0.624,0.049,0.13-1.021,0.287-1.44c-0.287,0-0.575,0-0.863,0C195.578,177.376,195.06,178.568,196.027,178.272z M98.683,184.32
		c-0.305-1.136-1.084-1.796-1.44-2.88c-0.48,0-0.96,0-1.44,0c-0.417,1.089,0.792,0.553,0.576,1.44c-0.48,0-0.96,0-1.44,0
		c0.224-1.855-1.205-2.059-2.304-2.592c0-0.672,0-1.344,0-2.016c-0.706-0.254-1.057-0.863-2.304-0.576
		c-0.731,4.036,0.452,7.048-1.44,10.368c0.419,0.158,1.489-0.336,1.44,0.289c0.235,1.579-1.015,1.673-0.576,3.456
		c0.96,0,1.92,0,2.88,0c-0.23-0.826-0.776-1.336-1.44-1.729c0.171-0.597-0.356-1.892,0.288-2.016
		c0.591,0.849,1.834,1.045,3.456,0.864c-0.365-1.132,0.679-0.856,1.44-0.864c-0.229-2.052,1.126-2.521,1.152-4.32
		C98.463,183.388,97.751,184.676,98.683,184.32z M191.419,184.32c0.624,0.048,0.131-1.021,0.288-1.44c-0.288,0-0.576,0-0.864,0
		C190.971,183.424,190.451,184.616,191.419,184.32z M201.211,186.048c0.636-0.036,0.122-1.222,0.288-1.728
		c-1.133,0.364-0.856-0.68-0.864-1.44C199.357,183.262,200.697,185.582,201.211,186.048z M202.938,185.184c0.48,0,0.96,0,1.44,0
		c-0.006-0.954-0.486-1.434-1.44-1.44C202.938,184.224,202.938,184.704,202.938,185.184z M156.571,188.064c0,0.289,0,0.577,0,0.864
		c0.622-0.337,1.103-0.817,1.439-1.439c-0.288,0-0.576,0-0.864,0C157.114,187.839,157.061,188.17,156.571,188.064z M182.491,191.232
		c0.659-0.493,0.105-2.198,0.288-3.168c-0.288,0-0.576,0-0.864,0C182.205,189.022,181.278,191.197,182.491,191.232z
		 M151.963,191.232c0.237,0.723-0.56,2.479,0.576,2.304c0.237-1.09,1.811-3.648,0.288-4.608
		C152.625,189.782,153.429,191.643,151.963,191.232z M140.73,190.368c0,0.479,0,0.96,0,1.44c0.48,0,0.96,0,1.44,0
		c-0.514-1.474,0.764-1.156,0.864-2.017C141.933,189.65,142.115,190.792,140.73,190.368z M187.099,191.809
		c1.308-0.539,0.393,1.144,1.44,0.863c0.624,0.049,0.13-1.021,0.288-1.439c-1.353,0.488-0.376-1.354-1.729-0.864
		C187.099,190.848,187.099,191.328,187.099,191.809z M90.331,194.112c0.768,0,1.536,0,2.304,0c-0.402-0.558-0.349-1.571-1.44-1.44
		C91.734,193.979,90.051,193.064,90.331,194.112z M89.755,196.416c0-0.768,0-1.536,0-2.304c-0.768,0-1.536,0-2.304,0
		C87.412,195.688,88.18,196.455,89.755,196.416z M151.963,196.416c0.48,0,0.96,0,1.44,0c0-0.479-0.001-0.96,0-1.439
		c-0.48,0-0.96,0-1.44,0C151.963,195.456,151.963,195.937,151.963,196.416z M149.659,197.856c0-0.769,0-1.536,0-2.305
		C148.742,195.235,148.742,198.173,149.659,197.856z M137.851,202.464c-0.288,0-0.576,0-0.864,0c0.128,0.545-0.392,1.736,0.576,1.44
		c0.853-1.451,0.7-3.908,3.167-3.744c0-0.48,0-0.96,0-1.44c-1.219-0.163-1.166,0.946-1.728,1.44
		c-0.431-0.049-1.063,0.103-1.152-0.288c-0.297-1.354,1.003-1.108,0.576-2.592c-0.887-0.216-0.351,0.993-1.44,0.576
		c0,0.768,0,1.536,0,2.304C138.453,199.75,137.649,201.61,137.851,202.464z M157.146,197.856c0,0.288,0,0.576,0,0.863
		c1.091,0.131,1.038-0.882,1.44-1.439C157.699,197.064,158.236,198.273,157.146,197.856z M146.779,201.601
		c0.479,0,0.96-0.001,1.439,0c0-0.48,0-0.96,0-1.44c-0.479,0-0.96,0-1.439,0C146.779,200.641,146.779,201.12,146.779,201.601z
		 M154.843,202.464c0,0.48,0,0.96,0,1.44c0.769,0,1.536,0,2.304,0c-0.234-1.771,1.496-1.577,0.864-3.744c-0.288,0-0.576,0-0.864,0
		C156.905,201.455,155.912,201.998,154.843,202.464z M143.035,203.04c0.885,0.44,0.885-1.881,0-1.439
		C143.035,202.08,143.035,202.561,143.035,203.04z M147.931,203.904c-0.384,0-0.768,0-1.151,0c0-0.48,0-0.96,0-1.44
		c-0.954,0.007-1.435,0.486-1.44,1.44c0.419,0.157,1.488-0.337,1.44,0.288c0,1.151,0,2.304,0,3.456
		c-1.356,0.084-1.521,1.358-1.44,2.88c0.888,0.215,0.351-0.993,1.44-0.576c-0.331-1.771,1.022-1.856,1.439-2.88
		c-0.556-0.308-1.177-0.551-0.864-1.729c1.574,0.326,0.206-2.29,2.305-1.439c-0.173-0.748,0.115-1.036,0.863-0.864
		c0-0.479,0-0.96,0-1.439c-0.479,0-0.96-0.001-1.439,0C148.957,202.626,148.014,202.835,147.931,203.904z M151.675,203.904
		c0.625,0.049,0.131-1.021,0.288-1.44c-0.288,0-0.576,0-0.864,0C151.227,203.009,150.707,204.2,151.675,203.904z M157.723,206.208
		c0.308-0.556,0.551-1.177,1.729-0.864c0-0.768,0-1.535,0-2.304c-0.48,0-0.96,0-1.44,0
		C158.809,204.736,155.856,205.313,157.723,206.208z M142.171,206.208c0,0.48,0,0.96,0,1.44c0.479,0,0.96,0,1.44,0
		c0.007-0.761-0.27-1.805,0.863-1.44c0-0.479,0-0.96,0-1.439c-1.307,0.538-0.392-1.145-1.439-0.864
		C142.833,204.758,143.637,206.618,142.171,206.208z M149.083,214.272c-1.219-0.604-1.219-3.717,0-4.32
		c-3.029-0.341-2.429,2.947-3.744,4.32C146.267,213.303,148.045,213.752,149.083,214.272z M95.803,212.256
		c0.544-0.127,1.736,0.392,1.44-0.576c-0.766-0.098-0.658-1.069-1.44-1.151C95.803,211.104,95.803,211.68,95.803,212.256z
		 M141.595,212.256c0.669-1.207-2.042-1.253-1.728-0.288c0.486,0.953,2.22,0.66,3.168,1.152c0,0.96,0,1.92,0,2.88
		c1.242-0.197,0.265-2.615,0.576-3.744c0.748,0.173,1.036-0.115,0.863-0.863C143.328,211.493,143.377,212.79,141.595,212.256z
		 M160.891,219.744c0-0.48,0-0.96,0-1.44c-2.103,0.855-0.825-1.67-2.016-1.728c-0.636,0.036-0.122,1.222-0.288,1.728
		C159.931,218.209,159.936,219.451,160.891,219.744z"/>
	<path fill-rule="evenodd" clip-rule="evenodd" d="M87.451,157.536c1.303-0.247,1.607,0.505,2.304,0.864
		c-0.117,0.747-0.896,0.831-1.44,1.152C89.657,158.183,88.021,158.456,87.451,157.536z"/>
	<path fill-rule="evenodd" clip-rule="evenodd" d="M91.195,158.976c0.89,0.166,1.509,0.603,2.304,0.864
		c-0.6,0.648-1.176,1.319-0.864,2.88c-0.772-0.284-0.796-1.316-2.304-0.864c0-0.48,0-0.96,0-1.44c0.576,0,1.152,0,1.728,0
		c0-0.192,0-0.384,0-0.576C92.173,159.15,90.747,160,91.195,158.976z"/>
	<path fill-rule="evenodd" clip-rule="evenodd" d="M106.171,160.416c-0.734,3.234,1.862,4.662,0.576,7.488
		C106.188,166.124,104.823,162.197,106.171,160.416z"/>
	<path fill-rule="evenodd" clip-rule="evenodd" d="M137.851,162.72c1.484-0.236,2.198,0.298,2.879,0.864
		c-0.6,0.648-1.176,1.32-0.863,2.88c-0.68-0.569-1.049-1.447-1.44-2.304c-1.048-0.28-0.133,1.403-1.44,0.864
		C136.771,163.751,138.448,164.374,137.851,162.72z"/>
	<path fill-rule="evenodd" clip-rule="evenodd" d="M137.851,171.072c0.114-0.69-1.312,0.16-0.864-0.864
		c1.328,0.618,1.328-2.922,0-2.304c0-0.48,0-0.96,0-1.44c0.48,0,0.96,0,1.44,0c-0.196,1.854,2.791,2.857,0.864,4.608
		c1.888,3.267-1.913,5.218-2.304,8.064c-1.307-0.539-0.392,1.144-1.44,0.864c-0.142-1.389,0.161-2.335,1.44-2.304
		c0-0.384,0-0.768,0-1.152c-1.305-0.134-0.77-2.109-0.864-3.456C137.176,172.894,138.108,172.578,137.851,171.072z M137.851,173.952
		c0.48,0,0.96,0,1.44,0c0-0.48,0-0.96,0-1.44c-0.48,0-0.96,0-1.44,0C137.851,172.992,137.851,173.472,137.851,173.952z"/>
	<path fill-rule="evenodd" clip-rule="evenodd" d="M118.267,172.512c1.229,0.115,0.274,2.414,0.576,3.456
		c0.046,0.337,0.525,0.243,0.864,0.288c-0.189,3.165,2.699,3.252,2.88,6.048c-1.26-1.827-1.755,0.208-3.744,0
		C119.273,178.417,118.15,176.084,118.267,172.512z"/>
	<path fill-rule="evenodd" clip-rule="evenodd" d="M98.683,177.696c0.954,0.006,1.434,0.486,1.44,1.44
		C99.5,178.799,99.021,178.319,98.683,177.696z"/>
	<path fill-rule="evenodd" clip-rule="evenodd" d="M108.475,180c0.954,0.006,1.434,0.486,1.44,1.44
		C109.292,181.103,108.812,180.623,108.475,180z"/>
	<path fill-rule="evenodd" clip-rule="evenodd" d="M76.219,186.048c0-0.288,0-0.576,0-0.864c1.091-0.131,1.038,0.882,1.44,1.44
		C76.771,186.839,77.308,185.631,76.219,186.048z"/>
	<path fill-rule="evenodd" clip-rule="evenodd" d="M206.106,191.809c0.128-0.545-0.392-1.736,0.576-1.44c0,0.384,0,0.768,0,1.152
		c0.116,0.556,1.319,0.024,0.864,1.151C206.24,193.211,207.155,191.528,206.106,191.809z"/>
	<path fill-rule="evenodd" clip-rule="evenodd" d="M188.827,211.393c-0.126,1.025-1.069,1.234-1.152,2.304
		c-0.968,0.296-0.448-0.896-0.576-1.44C188.451,212.745,187.475,210.903,188.827,211.393z"/>
	<path fill-rule="evenodd" clip-rule="evenodd" d="M126.331,217.44c1.014,0.042,1.242,0.869,1.728,1.439
		C127.19,218.692,126.316,218.511,126.331,217.44z"/>
	<path fill-rule="evenodd" clip-rule="evenodd" d="M136.123,222.048c0.166-0.506-0.348-1.691,0.288-1.728
		c0.9,0.348,0.55,1.946,1.44,2.304C136.711,222.996,137.263,221.676,136.123,222.048z"/>
	<path fill-rule="evenodd" clip-rule="evenodd" d="M150.522,224.064c0-0.672,0-1.345,0-2.017c0.48,0,0.96,0,1.44,0
		c0,0.384,0,0.769,0,1.152c-0.114,0.69,1.312-0.16,0.864,0.864C151.611,223.788,151.542,223.224,150.522,224.064z"/>
</g>
</svg>
