<?xml version="1.0" encoding="utf-8"?>
<!-- Generator: Adobe Illustrator 15.1.0, SVG Export Plug-In . SVG Version: 6.00 Build 0)  -->
<!DOCTYPE svg PUBLIC "-//W3C//DTD SVG 1.1//EN" "http://www.w3.org/Graphics/SVG/1.1/DTD/svg11.dtd">
<svg version="1.1" id="Layer_1" xmlns="http://www.w3.org/2000/svg" xmlns:xlink="http://www.w3.org/1999/xlink" x="0px" y="0px"
	 width="145.639px" height="192.814px" viewBox="0 0 145.639 192.814" enable-background="new 0 0 145.639 192.814"
	 xml:space="preserve">
<path fill-rule="evenodd" clip-rule="evenodd" d="M143.32,170.261c-7.333-3.702-14.865-4.425-21.624,2.508
	c-4.757,4.878-9.858,9.272-15.952,12.328c-0.009,2.833,0.885,7.339-3.65,7.718c-5.786-8.959-12.167-16.611-11.432-25.199
	c-1.187-0.984-3.185,1.064-4.157-0.718c1.406-1.312,2.2-0.343,3.545-1.423c2.438-6.549-6.759-5.236-9.161-11.547
	c-3.418,2.246-10.482,3.243-12.125-0.482c-1.219-1.926,0.723-0.405,1.402-0.81c-1.307-1.517-3.141-1.061-4.301-3.129
	c-1.283-1.134,0.564-1.43,1.332-2.015c-1.335-0.918-3.04-0.463-4.03-2.661c-1.136,0.722-0.943,1.712-2.339,1.351
	c-1.49-1.585,2.269-1.764,1.996-3.023c-3.164-2.631,0.003-3.689-3.24-5.611c-0.797-0.872,0.152-1.276,0.863-1.746
	c-1.365,0.176-2.27-1.369-3.491-1.727c1.529-2.115-3.585-3.572-0.56-5.289c-4.756-2.648-4.093-9.473-8.766-13.021
	c-3.018-8.359-5.672-15.303-11.287-22.789c-0.795-0.872,0.152-1.277,0.861-1.746c-1.161-1.068-2.451-1.664-3.562-2.932
	c2.107-3.193-5.192-5.602-2.719-9.031c-4.665-2.104-2.238-7.172-7.072-9.01c1.359-2.357-0.471-3.221-2.233-4.945
	c0.469-0.27,0.937-0.541,1.403-0.811c-0.713-0.78-1.33-1.916-2.482-1.061c-0.544-4.483-2.77-7.688-6.283-11.961
	c0.234-0.465,0.479-0.928,1.134-1.277c-3.926-1.569-1.136-3.726-4.446-5.541c-0.967-3.971-4.05-7.542-5.274-11.295
	c-0.782-2.405-3.776-5.15-3.978-5.81C1.547,27.081,2.643,25.297,0,23.545C12.738,16.014,26.394,6.643,37.538,0
	c1.599,1.93,4.712,9.665,6.876,9.749c20.104,38.714,47.502,80.3,67.354,114.504c10.09,1.462,4.298,16.21,11.467,17.698
	c2.139-0.876,0.963-2.64,2.194-3.76c5.666,2.957,3.979,10.463,5.49,14.91c6.022,1.55,13.03,4.904,14.72,11.455L143.32,170.261z
	 M93.676,137.193c3.229,5.883-9.122,8.095-7.232,0.434c-6.771,10.816,2.684,22.824,14.252,11.725
	c-3.469-2.027-3.667-6.378,1.437-8.312c1.664,1.166,3.738,0.8,4.84,4.063c2.385-1.422,5.636-1.538,8.707-0.038
	c0.973,0.475,1.289,2.335,2.356,3.003c0.729,0.454,2.067-0.008,2.683,0.322c15.978,8.598-10.31,32.965-22.929,25.087
	c-6.172-2.602-1.178-9.51-2.469-12.917c-1.45-3.817-7.055-5.991-10.67-4.438c12.091,2.112,6.094,14.667,10.819,23.06
	c2.364,4.201,6.357,5.18,7.415,10.684c1.141-2.088-0.138-5.268,2.443-7.646c3.604-3.321,9.74-4.18,13.562-7.83
	c1.979-1.893,2.715-4.45,4.73-5.848c7.375-5.125,12.87-2.258,19.752-1.428c0.073-6.711-6.248-9.538-10.834-11.205
	c-1.954-0.082-4.604,2.429-6.026,0.361c0.702-3.898,0.228-8.055-0.797-13.258c-1.837,0.694-1.948,1.849-2.731,2.824
	c-6.996,0.571-9.679-5.801-8.495-12.554c-0.901-1.559-1.802-3.118-2.701-4.676c-4.157-2.824-10.91-2.669-16.677,0.275
	c-3.57,1.822-7.994,5.256-7.733,8.206C89.37,134.012,92.587,135.213,93.676,137.193z M119.136,154.293
	c-4.72-9.223-14.288-1.578-22.288,3.517c3.654,5.53-2.607,11.013,4.285,14.983C111.256,170.469,123.255,162.339,119.136,154.293z
	 M103.157,146.059c0.534,1.084-1.526,0.073-2.338,1.351C101.092,149.732,105.826,145.71,103.157,146.059z M97.16,122.709
	C74.974,86.264,52.912,45.757,29.066,8.009C20.703,11.671,10.643,19.424,1.942,23.67c4.413,5.644,6.784,13.805,11.808,19.371
	c-0.422,0.546-0.771,1.109-0.862,1.744c3.237,4.053,7.733,9.609,7.901,14.769c3.876-0.509,1.643,4.248,4.913,5.269
	c-0.509,0.392-1.372,0.686-1.132,1.277c2.559,2.93,6.154,7.41,5.471,10.559c1.018,1.615,2.546,1.32,3.564,2.932
	c-0.468,0.27-0.937,0.541-1.404,0.811c0.79,1.479,2.242,0.484,2.826,2.732c-0.578,3.697,5.194,6.021,3.727,9.696
	c2.109,2.08,4.714,4.685,3.853,7.753c2.01-0.08,2.473,2.357,1.423,3.545c1.29-0.387,2.061,1.165,3.021,1.994
	c-2.464,2.342,1.322,2.551,2.432,4.21c-0.548,0.511-0.51,1.181-1.6,1.547c1.518,0.747,4.6,2.109,2.429,4.21
	c1.077-0.548,4.84,2.221,1.89,3.272c3.738,1.682,2.581,4.036,5.723,6.673c-0.508,0.391-1.373,0.687-1.132,1.278
	c1.242,0.278,2.227,1.519,3.094,3.2c-0.589,0.252-1.541-0.219-1.401,0.811c1.067-0.049,1.803,1.145,2.752,1.527
	c-0.582,0.373-0.301,0.975-1.133,1.279c0.9,1.561,2.442,0.718,3.292,2.463c-2.086,2.707,4.535,5.268,2.452,8.562
	c2.637,0.605,3.448,3.012,4.714,6.006c3.062,0.872,5.52,3.99,9.913-0.111C76.23,139.089,83.344,128.571,97.16,122.709z
	 M91.607,139.01c-0.766,0.718-3.187,0.992-1.799,2.287c0.78-0.45,1.559-0.901,2.339-1.352
	C91.967,139.634,91.787,139.322,91.607,139.01z M35.739,2.286c-2.531,0.743-3.199,3.293-5.145,2.97
	c15.662,26.189,32.571,55.549,46.026,77.56c6.644,10.869,14.713,23.979,23.146,39.012c1.597-0.884,1.509-1.995,3.076-1.151
	c-0.381,1.084-2.182,1.787-1.995,3.023c2.766-0.979,4.931,0.289,7.503,0.032C86.716,87.658,61.737,44.914,35.739,2.286z
	 M87.879,129.315c0.249,1.12-2.008,1.57-1.529,2.754C88.008,130.648,93.299,125.92,87.879,129.315z M103.015,72.966
	c-0.003-0.957,0.136-2.058-0.36-2.521c-1.902,0.137-3.715,0.364-3.96,2.16c0.22,0.5,1.386,0.055,1.44,0.72
	c-0.566,0.995-1.89,1.231-2.16,2.521c1.385-0.439,1.629,0.215,2.16-1.08c-0.11,0.949,0.752,0.929,1.439,1.08
	c0.175-0.426,0.384-0.816,0.721-1.08c1.381,1.713,2.706,0.392,4.319-0.36c0.565-1.885-0.726-1.914-1.079-2.88
	c1.143-0.417,2.929-0.19,2.879-1.799C105.584,68.149,104.902,71.643,103.015,72.966z M104.596,137.747
	c-2.387,2.966-5.295,2.226-6.495,0.633C92.54,130.997,111.123,129.627,104.596,137.747z M101.895,133.07
	c-1.236,0.725-2.903,1.331-2.265,2.556C100.43,134.787,103.314,134.506,101.895,133.07z"/>
</svg>
