<?xml version="1.0" encoding="utf-8"?>
<!-- Generator: Adobe Illustrator 15.1.0, SVG Export Plug-In . SVG Version: 6.00 Build 0)  -->
<!DOCTYPE svg PUBLIC "-//W3C//DTD SVG 1.1//EN" "http://www.w3.org/Graphics/SVG/1.1/DTD/svg11.dtd">
<svg version="1.1" id="Layer_1" xmlns="http://www.w3.org/2000/svg" xmlns:xlink="http://www.w3.org/1999/xlink" x="0px" y="0px"
	 width="102.932px" height="146.946px" viewBox="0 0 102.932 146.946" enable-background="new 0 0 102.932 146.946"
	 xml:space="preserve">
<path fill-rule="evenodd" clip-rule="evenodd" d="M29.957,55.014c1.704-0.264,1.907,0.975,3.779,0.541
	c-1.101,3.398-2.312,6.688-4.319,9.18c-1.218-2.315,1.994-4.832,2.699-7.021c-0.138-1.12-2.371-0.146-2.699-1.079
	C29.702,56.201,29.98,55.758,29.957,55.014z"/>
<path fill-rule="evenodd" clip-rule="evenodd" d="M27.796,56.096c-0.051,2.286-1.947,2.743,0,4.319
	c-0.123,1.856-1.606,2.353-3.24,2.7c0.674-1.441,1.851-3.527-0.539-3.781c0.17-1.27,2.56-0.319,2.16-2.159
	c-0.457-1.274-1.329,1.488-3.239,0.539C22.983,55.3,26.044,55.303,27.796,56.096z"/>
<path fill-rule="evenodd" clip-rule="evenodd" d="M24.017,59.875c-0.758,1.041-0.294,3.306-2.699,2.699
	C20.989,60.445,22.524,60.182,24.017,59.875z"/>
<path fill-rule="evenodd" clip-rule="evenodd" d="M15.917,3.175c0.54,0,1.08,0,1.619,0c-0.517,1.642-1.09,3.229-1.619,4.86
	c1.624,0.881,2.6-3.504,5.4-3.24c-0.969,2.271-1.037,5.443-3.24,6.479c-6.197,23.185-4.516,63.49,0,87.48
	c1.673,3.368,4.764,5.318,4.86,10.26c5.537,0.258,7.511-6.588,11.339-9.719c11.932-22.723,11.471-62.546,7.561-92.88
	c4.332-0.446,3.316,4.575,3.779,7.02c5.107,26.924,4.092,60.185-3.779,85.319c-4.287,1.142-5.227,5.852-7.561,9.721
	c1.336,0.594,2.811-3.294,4.32-4.32c-0.316,5.263-3.935,7.226-5.939,10.8c1.533,2.495,3.812,2.192,5.939,4.319
	c6.806,6.807,6.18,24.613-2.159,27c-2.774,0.796-6.798,0.115-8.101-2.158c3.949-4.124,8.682-6.939,7.02-14.041
	c-0.396-1.691-3.038-4.506-4.86-5.939c-1.249-0.984-5.736-4.318-5.94-4.32c-4.045-0.021-8.02,9.943-9.178,14.58
	c1.979,4.861,4.631,9.048,9.719,10.8c-1.96,1.606-6.732,2.417-9.18,1.079c-11.565-6.318-7.124-26.611,2.699-32.939
	c-5.549-9.945-8.469-20.353-9.179-35.64C8.312,53.527,8.886,18.176,15.917,3.175z"/>
<path fill-rule="evenodd" clip-rule="evenodd" d="M94.288,4.32c1.23,1.02,2.014-3.003,4.32-2.699
	c-1.039,2.715,0.457,1.785,2.16,2.699c0,1.08,0,2.159,0,3.24c-1.129,0.311-1.542,1.339-3.24,1.08
	c0.451-1.168,1.398-1.842,1.08-3.781c-1.96,0.398-2.118,2.92-1.62,4.321c-2.977-1.823-2.572-0.917-5.94,0
	c0.559-2.579,2.249-3.116,0.541-5.401C92.474,2.684,94,2.231,93.748,0C95.556,0.151,96.069,3.707,94.288,4.32z"/>
<path fill-rule="evenodd" clip-rule="evenodd" d="M100.769,0c0.479,0.42,1.219,0.58,2.16,0.539c0.09,1.672-1.9,2.43-2.7,1.621
	C100.159,1.191,100.89,1.021,100.769,0z"/>
<path fill-rule="evenodd" clip-rule="evenodd" d="M92.669,0.539c-0.102,1.52-0.939,2.302-2.7,2.161
	C89.446,0.557,91.532,1.024,92.669,0.539z"/>
<path fill-rule="evenodd" clip-rule="evenodd" d="M87.269,5.94c1.252-0.173,2.073,0.087,2.7,0.539
	c-0.486,0.955-1.304,1.577-1.62,2.701C86.927,8.469,86.693,7.406,87.269,5.94z"/>
<path fill-rule="evenodd" clip-rule="evenodd" d="M91.589,43.74c-0.012-7.146,2.811,9.361,2.699,10.799
	c-0.042,0.553-1.619,0.518-1.619,0.541c-0.002,1.549,1.346,0.243,1.619,1.62c0.236,1.192-1.302,0.108-1.619,1.62
	c0.282-1.344,1.777,4.533,0.54,5.399c3.709-3.322,0.933-9.475,0.539-14.579c-0.312-4.051,0.237-7.955,0-11.881
	c3.679,36.837,5.751,75.544,7.56,112.861c-3.414-16.361-5.061-35.5-7.56-53.461c-1.675-12.041-0.142-25.279-7.02-35.1
	c-2.643,2.938-4.265,6.896-4.319,12.419c-1.09-2.935-2.267-2.015-2.161-7.02c-1.722,3.803,0.638,8.878,1.62,10.26
	c-0.801,13.675-2.363,29.909-3.24,45.36c-0.557,9.816-0.366,19.879-3.779,27.541c1.304-25.002-0.172-50.775,1.08-75.061
	c0.475-9.207-0.072-17.301,0-28.62c0.037-5.965,1.268-12.082,0.54-17.28c-0.328-2.338-1.71-4.259-1.62-6.479
	c0.484-12.117,20.938-12.211,22.14,0.539c-1.054,4.611-4.427,7.626-2.7,13.5c-1.844-0.316-0.307-4.013-1.619-4.86
	c-0.713,2.012-1.678,5.322-1.621,8.101c1.171,0.091,0.245-1.916,0.541-2.7C93.153,38.861,91.381,41.706,91.589,43.74z M85.108,26.46
	c0.324-1.403-0.217-1.942-1.62-1.62c-0.122,1.021,0.608,1.191,0.54,2.16c1.961-0.02,4.264,0.304,4.859-1.08
	c-1.291-1.446,0.33-2.451-0.539-4.32c-1.352-0.067-1.69-1.029-2.16,0.541C89.066,24.119,87.736,26.152,85.108,26.46z M91.048,27.539
	c1.234-1.537,1.137-2,1.621-4.858c-0.852-0.05-0.424-1.378-1.621-1.081C91.606,23.809,90.175,26.806,91.048,27.539z M81.327,62.1
	c-0.742,0.023-1.185-0.254-1.618-0.539c1.821,2.098,0.993,6.723,2.159,8.1c0.457-14.645,2.611-25.854,1.62-35.641
	c-0.118-0.42-0.452-0.628-1.079-0.54C82.188,44.044,81.454,50.319,81.327,62.1z M85.108,59.94c-0.504-0.331-1.992-1.257-1.62,0.539
	c1.421,0.653,2.046,0.37,3.78-0.539c-0.404-7.823,1.322-18.147-1.619-25.921C86.019,43.055,83.593,51.48,85.108,59.94z M80.788,59.4
	c-0.146-1.156,0.418-5.762-0.54-4.32C80.395,56.236,79.831,60.842,80.788,59.4z"/>
</svg>
